<svg width="8" height="16" viewBox="0 0 8 16" fill="none" xmlns="http://www.w3.org/2000/svg">
<path fill-rule="evenodd" clip-rule="evenodd" d="M0.266541 15.766C0.561067 16.078 1.0374 16.078 1.3312 15.766L7.55841 9.15515C7.6978 9.00942 7.80879 8.83404 7.88464 8.63965C7.96048 8.44526 7.9996 8.23594 7.9996 8.0244C7.9996 7.81287 7.96048 7.60354 7.88464 7.40916C7.80879 7.21477 7.6978 7.03938 7.55841 6.89366L1.28611 0.233995C1.14376 0.0851607 0.955244 0.00150591 0.758855 2.01341e-05C0.562466 -0.00146564 0.372925 0.079329 0.228726 0.225996C0.157292 0.298424 0.100136 0.386213 0.0607959 0.483926C0.0214563 0.581639 0.000771054 0.687195 2.11478e-05 0.794059C-0.000728758 0.900922 0.0184726 1.00682 0.0564363 1.10519C0.0943999 1.20356 0.150318 1.29231 0.220726 1.36594L5.96142 7.45923C6.03118 7.5321 6.08672 7.61982 6.12468 7.71705C6.16264 7.81428 6.18221 7.91899 6.18221 8.0248C6.18221 8.13062 6.16264 8.23533 6.12468 8.33256C6.08672 8.42979 6.03118 8.51751 5.96142 8.59037L0.266541 14.6357C0.196808 14.7085 0.141276 14.7961 0.103328 14.8933C0.0653796 14.9904 0.0458094 15.0951 0.0458094 15.2008C0.0458094 15.3066 0.0653796 15.4112 0.103328 15.5084C0.141276 15.6056 0.196808 15.6932 0.266541 15.766Z" fill="#4BDCD5"/>
</svg>
