<svg width="20" height="20" viewBox="0 0 20 20" fill="none" xmlns="http://www.w3.org/2000/svg">
<path d="M15.7702 9.9999C15.7702 9.799 15.7033 9.63159 15.5693 9.49766L14.5537 8.48204L10.5135 4.44186C10.3796 4.30793 10.2122 4.24097 10.0113 4.24097C9.81041 4.24097 9.643 4.30793 9.50907 4.44186L8.49344 5.45749C8.35952 5.59141 8.29255 5.75882 8.29255 5.95972C8.29255 6.16061 8.35952 6.32802 8.49344 6.46195L10.6028 8.57132H5.00014C4.80669 8.57132 4.63928 8.64201 4.49791 8.78338C4.35654 8.92475 4.28585 9.09216 4.28585 9.28561V10.7142C4.28585 10.9076 4.35654 11.075 4.49791 11.2164C4.63928 11.3578 4.80669 11.4285 5.00014 11.4285H10.6028L8.49344 13.5378C8.35207 13.6792 8.28139 13.8466 8.28139 14.0401C8.28139 14.2335 8.35207 14.4009 8.49344 14.5423L9.50907 15.5579C9.643 15.6919 9.81041 15.7588 10.0113 15.7588C10.2122 15.7588 10.3796 15.6919 10.5135 15.5579L14.5537 11.5178L15.5693 10.5021C15.7033 10.3682 15.7702 10.2008 15.7702 9.9999ZM18.5716 9.9999C18.5716 11.555 18.1884 12.9891 17.422 14.3024C16.6556 15.6156 15.6158 16.6554 14.3026 17.4218C12.9894 18.1881 11.5552 18.5713 10.0001 18.5713C8.44508 18.5713 7.01093 18.1881 5.69768 17.4218C4.38444 16.6554 3.34463 15.6156 2.57826 14.3024C1.8119 12.9891 1.42871 11.555 1.42871 9.9999C1.42871 8.44484 1.8119 7.01068 2.57826 5.69744C3.34463 4.3842 4.38444 3.34439 5.69768 2.57802C7.01093 1.81165 8.44508 1.42847 10.0001 1.42847C11.5552 1.42847 12.9894 1.81165 14.3026 2.57802C15.6158 3.34439 16.6556 4.3842 17.422 5.69744C18.1884 7.01068 18.5716 8.44484 18.5716 9.9999Z" fill="#4BDCD5"/>
</svg>
