<svg width="30" height="30" viewBox="0 0 30 30" fill="none" xmlns="http://www.w3.org/2000/svg">
<path d="M15 26.2031C8.8125 26.2031 3.79688 21.1875 3.79688 15C3.79688 8.8125 8.8125 3.79688 15 3.79688C21.1875 3.79688 26.2031 8.8125 26.2031 15C26.2031 21.1875 21.1875 26.2031 15 26.2031ZM15 5.01563C9.51562 5.01563 5.01563 9.51562 5.01563 15C5.01563 20.4844 9.51562 24.9844 15 24.9844C20.4844 24.9844 24.9844 20.4844 24.9844 15C24.9844 9.51562 20.4844 5.01563 15 5.01563Z" fill="#4BDCD5"/>
<path d="M14.7656 21.4219L13.9219 20.5312L19.4062 15L13.9219 9.46876L14.7656 8.57812L21.1875 15L14.7656 21.4219Z" fill="#4BDCD5"/>
<path d="M20.2969 15.6562H9.04688V14.3438H20.2969V15.6562Z" fill="#4BDCD5"/>
</svg>
