<svg width="59" height="58" viewBox="0 0 59 58" fill="none" xmlns="http://www.w3.org/2000/svg">
<g clip-path="url(#clip0_7113_3280)">
<path d="M51.6788 50.2623L49.4325 51.9331C47.9753 53.0163 46.2007 53.6039 44.3784 53.6039C42.5562 53.6039 40.7816 53.0163 39.3244 51.9331L37.0781 50.2623C32.8355 47.1074 30.3394 42.1563 30.3394 36.8962V28.5424C30.3394 25.4654 32.8524 22.9731 35.955 22.9731H52.8019C55.9045 22.9731 58.4175 25.4654 58.4175 28.5424V36.8962C58.4175 42.1563 55.9214 47.1074 51.6788 50.2623Z" fill="#FFCB55"/>
<path d="M46.429 33.1748C47.0735 34.1458 46.8146 35.4573 45.8437 36.1018L37.4006 41.7305C37.0431 41.9697 36.6379 42.0851 36.2298 42.0851C35.6866 42.0851 35.1435 41.874 34.7382 41.4659L31.9238 38.6516C31.0992 37.827 31.0992 36.4902 31.9238 35.6655C32.7484 34.8409 34.0853 34.8409 34.9099 35.6655L36.5 37.2557L43.5021 32.5866C44.4731 31.9421 45.7817 32.2039 46.429 33.1748ZM55.2267 28.7169V37.16C55.2267 43.1067 52.3842 48.7889 47.628 52.3547L45.3765 54.0461C43.5584 55.4083 41.3097 56.1569 39.0442 56.1569C36.7786 56.1569 34.5299 55.4083 32.7147 54.049L30.4604 52.3547C29.7202 51.8003 29.0447 51.1783 28.4002 50.5282H8.22408C3.88152 50.5282 0.34668 47.0581 0.34668 42.7887V20.2738C0.34668 16.0044 3.88152 12.5343 8.22408 12.5343H11.6041V9.01635C11.6041 4.74696 15.0742 1.27686 19.3436 1.27686H30.6011C34.8705 1.27686 38.3406 4.74696 38.3406 9.01635V12.5343H41.7206C46.0632 12.5343 49.598 16.0044 49.598 20.2738V21.3067C52.8373 22.2326 55.2267 25.1849 55.2267 28.7169ZM11.6041 16.7558H8.22408C6.209 16.7558 4.56822 18.3347 4.56822 20.2738V42.7887C4.56822 44.7278 6.209 46.3066 8.22408 46.3066H11.6041V16.7558ZM38.3406 16.7558V20.9774H45.3765V20.2738C45.3765 18.3347 43.7357 16.7558 41.7206 16.7558H38.3406ZM15.8257 12.5343H34.119V9.01635C34.119 7.07726 32.5402 5.4984 30.6011 5.4984H19.3436C17.4045 5.4984 15.8257 7.07726 15.8257 9.01635V12.5343ZM25.2538 46.3066C23.7256 43.5289 22.8616 40.3909 22.8616 37.16V28.7169C22.8616 24.4475 26.3317 20.9774 30.6011 20.9774H34.119V16.7558H15.8257V46.3066H25.2538ZM51.0052 28.7169C51.0052 26.7778 49.4263 25.1989 47.4872 25.1989H30.6011C28.662 25.1989 27.0831 26.7778 27.0831 28.7169V37.16C27.0831 41.7868 29.2924 46.2053 32.9961 48.9803L35.2476 50.6717C37.4231 52.2984 40.6652 52.3012 42.8464 50.6717L45.095 48.9831C48.7959 46.2081 51.008 41.7868 51.008 37.1628V28.7197L51.0052 28.7169Z" fill="#3477F6"/>
</g>
<defs>
<clipPath id="clip0_7113_3280">
<rect width="57.4326" height="57.4326" fill="white" transform="translate(0.665039)"/>
</clipPath>
</defs>
</svg>
