<svg width="52" height="52" viewBox="0 0 52 52" fill="none" xmlns="http://www.w3.org/2000/svg">
<path d="M37.2271 1.72885L37.2277 1.72937C37.6126 2.11201 37.83 2.63169 37.8323 3.17444V4.26087V5.34782C37.8323 5.89145 37.6164 6.41281 37.232 6.79721C36.8476 7.18161 36.3262 7.39756 35.7826 7.39756C35.2389 7.39756 34.7176 7.18161 34.3332 6.79721C33.9488 6.41281 33.7328 5.89145 33.7328 5.34782V3.17391C33.7328 2.63029 33.9488 2.10893 34.3332 1.72453C34.7175 1.34019 35.2388 1.12424 35.7823 1.12417C36.325 1.12653 36.8446 1.34398 37.2271 1.72885ZM28.5314 1.72885L28.5319 1.72937C28.9169 2.11201 29.1343 2.63169 29.1366 3.17444V4.26087V5.34782C29.1366 5.89145 28.9207 6.41281 28.5363 6.79721C28.1519 7.18161 27.6305 7.39756 27.0869 7.39756C26.5432 7.39756 26.0219 7.18161 25.6375 6.79721C25.2531 6.41281 25.0371 5.89145 25.0371 5.34782V3.17391C25.0371 2.63029 25.2531 2.10893 25.6375 1.72453C26.0218 1.34019 26.5431 1.12424 27.0866 1.12417C27.6293 1.12653 28.1488 1.34398 28.5314 1.72885ZM19.8357 1.72885L19.8362 1.72937C20.2211 2.11195 20.4385 2.63155 20.4409 3.17421C20.4409 3.17429 20.4409 3.17436 20.4409 3.17444L20.4409 4.26087V5.34782C20.4409 5.89145 20.2249 6.41281 19.8405 6.79721C19.4561 7.18161 18.9348 7.39756 18.3911 7.39756C17.8475 7.39756 17.3261 7.18161 16.9417 6.79721C16.5573 6.41281 16.3414 5.89145 16.3414 5.34782V3.17391C16.3414 2.63029 16.5573 2.10893 16.9417 1.72453C17.3261 1.34019 17.8473 1.12424 18.3909 1.12417C18.9335 1.12653 19.4531 1.34398 19.8357 1.72885ZM11.14 1.72885L11.1405 1.72937C11.5254 2.11195 11.7428 2.63155 11.7452 3.17421V4.26087V5.34782C11.7452 5.89145 11.5292 6.41281 11.1448 6.79721C10.7604 7.18161 10.239 7.39756 9.69541 7.39756C9.15178 7.39756 8.63042 7.18161 8.24602 6.79721C7.86161 6.41281 7.64566 5.89145 7.64566 5.34782V3.17391C7.64566 2.63029 7.86161 2.10893 8.24602 1.72453C8.63036 1.34019 9.15162 1.12424 9.69515 1.12417C10.2378 1.12653 10.7574 1.34398 11.14 1.72885L11.14 1.72885Z" fill="#FFCB55" stroke="#231F20" stroke-width="0.248345"/>
<path d="M44.3544 10.6584H1.12417V8.60869C1.12417 7.48851 1.56917 6.4142 2.36126 5.62212C3.15336 4.83003 4.22767 4.38504 5.34786 4.38504H7.39762V5.34782C7.39762 5.95731 7.63974 6.54184 8.07072 6.97281C8.5017 7.40379 9.08623 7.64591 9.69572 7.64591C10.3052 7.64591 10.8897 7.40379 11.3207 6.97281C11.7517 6.54184 11.9938 5.95731 11.9938 5.34782V4.38504H16.0933V5.34782C16.0933 5.95731 16.3355 6.54184 16.7664 6.97281C17.1974 7.40379 17.7819 7.64591 18.3914 7.64591C19.0009 7.64591 19.5855 7.40379 20.0164 6.97281C20.4474 6.54184 20.6895 5.95731 20.6895 5.34782V4.38504H24.7891V5.34782C24.7891 5.95731 25.0312 6.54184 25.4622 6.97281C25.8931 7.40379 26.4777 7.64591 27.0872 7.64591C27.6967 7.64591 28.2812 7.40379 28.7122 6.97281C29.1431 6.54184 29.3853 5.95731 29.3853 5.34782V4.38504H33.4848V5.34782C33.4848 5.95731 33.7269 6.54184 34.1579 6.97281C34.5889 7.40379 35.1734 7.64591 35.7829 7.64591C36.3924 7.64591 36.9769 7.40379 37.4079 6.97281C37.8389 6.54184 38.081 5.95731 38.081 5.34782V4.38504H40.1307C41.2509 4.38504 42.3253 4.83003 43.1173 5.62212C43.9094 6.4142 44.3544 7.48851 44.3544 8.60869V10.6584Z" fill="#3477F6" stroke="#231F20" stroke-width="0.248345"/>
<path d="M19.6022 36.7454V30.472H25.8756V36.7454H19.6022Z" fill="#3477F6" stroke="#231F20" stroke-width="0.248345"/>
<path d="M6.55874 36.7454V30.472H12.8322V36.7454H6.55874Z" fill="#3477F6" stroke="#231F20" stroke-width="0.248345"/>
<path d="M6.55874 23.7019V17.4285H12.8322V23.7019H6.55874Z" fill="#3477F6" stroke="#231F20" stroke-width="0.248345"/>
<path d="M19.6022 23.7019V17.4286H25.8756V23.7019H19.6022Z" fill="#3477F6" stroke="#231F20" stroke-width="0.248345"/>
<path d="M39.307 20.7697L39.3069 20.7695L39.3018 20.7736L35.7828 23.6654L32.2638 20.7736L32.2639 20.7735L32.2587 20.7697C32.0428 20.6104 31.8674 20.4028 31.7465 20.1634C31.6256 19.924 31.5626 19.6595 31.5626 19.3913C31.5626 19.1231 31.6256 18.8587 31.7465 18.6193C31.8674 18.3799 32.0428 18.1722 32.2587 18.013L32.2587 18.013L32.2605 18.0116C32.755 17.6325 33.3608 17.427 33.9839 17.427C34.607 17.427 35.2128 17.6325 35.7073 18.0116L35.7828 18.0695L35.8584 18.0116C36.3529 17.6325 36.9586 17.427 37.5817 17.427C38.2049 17.427 38.8106 17.6325 39.3051 18.0116L39.3051 18.0116L39.307 18.013C39.5228 18.1722 39.6982 18.3799 39.8191 18.6193C39.94 18.8587 40.003 19.1231 40.003 19.3913C40.003 19.6595 39.94 19.924 39.8191 20.1634C39.6982 20.4028 39.5228 20.6104 39.307 20.7697Z" fill="#3477F6" stroke="#231F20" stroke-width="0.248345"/>
<path d="M39.3047 18.0117L39.3047 18.0117L39.3064 18.013C39.5222 18.1722 39.6977 18.3798 39.8186 18.6192C39.9395 18.8587 40.0024 19.1231 40.0024 19.3913C40.0024 19.6595 39.9395 19.9239 39.8186 20.1633C39.6977 20.4028 39.5222 20.6104 39.3064 20.7696L39.3063 20.7695L39.3013 20.7736L35.7822 23.6654L34.891 22.9346L37.2826 20.9675C37.5285 20.7855 37.7284 20.5484 37.8663 20.2753C38.0047 20.0012 38.0769 19.6984 38.0769 19.3913C38.0769 19.0842 38.0047 18.7814 37.8663 18.5073C37.7283 18.2339 37.5281 17.9967 37.2819 17.8146C37.1448 17.7048 36.9975 17.6088 36.8421 17.5279C37.2102 17.428 37.5957 17.4032 37.9756 17.4563C38.4591 17.5238 38.9169 17.7151 39.3047 18.0117Z" fill="#2F6CE0" stroke="#231F20" stroke-width="0.248345"/>
<path d="M46.7762 36.8696C46.7762 36.326 46.9921 35.8046 47.3765 35.4202C47.7609 35.0358 48.2823 34.8198 48.8259 34.8198C49.3695 34.8198 49.8909 35.0358 50.2753 35.4202C50.6597 35.8046 50.8757 36.326 50.8757 36.8696V46.6522C50.8757 47.7724 50.4307 48.8467 49.6386 49.6388C48.8465 50.4308 47.7722 50.8758 46.652 50.8758H37.9563C36.8361 50.8758 35.7618 50.4308 34.9697 49.6388C34.1776 48.8467 33.7326 47.7724 33.7326 46.6522V29.2609C33.7326 28.7173 33.9485 28.1959 34.3329 27.8115C34.7173 27.4271 35.2387 27.2111 35.7823 27.2111C36.326 27.2111 36.8473 27.4271 37.2317 27.8115C37.6161 28.1959 37.8321 28.7173 37.8321 29.2609V34.6957H37.9563H38.0804C38.0804 34.152 38.2964 33.6307 38.6808 33.2463C39.0652 32.8619 39.5866 32.6459 40.1302 32.6459C40.6738 32.6459 41.1952 32.8619 41.5796 33.2463C41.964 33.6307 42.1799 34.152 42.1799 34.6957V35.7826H42.3041H42.4283C42.4283 35.239 42.6442 34.7176 43.0287 34.3332C43.4131 33.9488 43.9344 33.7329 44.4781 33.7329C45.0217 33.7329 45.543 33.9488 45.9275 34.3332C46.3119 34.7176 46.5278 35.239 46.5278 35.7826V36.8696H46.652H46.7762Z" fill="#5D92F8" stroke="#231F20" stroke-width="0.248345"/>
<path d="M33.7326 46.6522V44.8609C33.9522 45.492 34.3125 46.072 34.7941 46.5535C35.6327 47.3922 36.7702 47.8634 37.9563 47.8634H46.652C47.838 47.8634 48.9755 47.3922 49.8142 46.5535C50.2957 46.072 50.6561 45.492 50.8757 44.8609V46.6522C50.8757 47.7724 50.4307 48.8467 49.6386 49.6388C48.8465 50.4309 47.7722 50.8759 46.652 50.8759H37.9563C36.8361 50.8759 35.7618 50.4309 34.9697 49.6388C34.1776 48.8467 33.7326 47.7724 33.7326 46.6522Z" fill="#3477F6" stroke="#231F20" stroke-width="0.248345"/>
<path d="M35.7829 23.9868L35.7041 23.922L32.1087 20.9675C31.8628 20.7855 31.6628 20.5484 31.5249 20.2753C31.3865 20.0012 31.3144 19.6984 31.3144 19.3913C31.3144 19.0842 31.3865 18.7814 31.5249 18.5073C31.6632 18.2335 31.8637 17.996 32.1104 17.8138C32.6481 17.4018 33.3066 17.1786 33.984 17.1786C34.6303 17.1786 35.2595 17.3819 35.7829 17.7584C36.3063 17.3819 36.9355 17.1786 37.5818 17.1786C38.2592 17.1786 38.9177 17.4019 39.4554 17.8138C39.4557 17.814 39.456 17.8143 39.4563 17.8145L39.3807 17.913C39.6122 18.0838 39.8004 18.3065 39.93 18.5633C40.0597 18.82 40.1272 19.1036 40.1272 19.3913C40.1272 19.6789 40.0597 19.9625 39.93 20.2193C39.8004 20.4761 39.6122 20.6988 39.3807 20.8695L35.7829 23.9868ZM35.7829 23.9868L35.8617 23.922L39.4571 20.9675L35.7829 23.9868ZM42.8536 34.1576C42.6803 34.3308 42.5376 34.5289 42.4288 34.7435V34.6956C42.4288 34.0861 42.1867 33.5016 41.7558 33.0706C41.3248 32.6397 40.7402 32.3975 40.1307 32.3975C39.5213 32.3975 38.9367 32.6397 38.5057 33.0706C38.3325 33.2439 38.1897 33.442 38.081 33.6565V29.2608C38.081 28.6514 37.8389 28.0668 37.4079 27.6359C36.9769 27.2049 36.3924 26.9628 35.7829 26.9628C35.1734 26.9628 34.5889 27.2049 34.1579 27.6359C33.7269 28.0668 33.4848 28.6514 33.4848 29.2608V43.2671H5.34786C4.22767 43.2671 3.15336 42.8221 2.36126 42.03C1.56917 41.2379 1.12417 40.1636 1.12417 39.0434V10.9068H44.3544V33.4878C43.7902 33.5184 43.2552 33.756 42.8536 34.1576ZM26.0002 36.9937H26.1244V36.8695V30.3478V30.2236H26.0002H19.4784H19.3542V30.3478V36.8695V36.9937H19.4784H26.0002ZM26.0002 23.9502H26.1244V23.8261V17.3043V17.1802H26.0002H19.4784H19.3542V17.3043V23.8261V23.9502H19.4784H26.0002ZM12.9566 36.9937H13.0808V36.8695V30.3478V30.2236H12.9566H6.43483H6.31065V30.3478V36.8695V36.9937H6.43483H12.9566ZM12.9566 23.9502H13.0808V23.8261V17.3043V17.1802H12.9566H6.43483H6.31065V17.3043V23.8261V23.9502H6.43483H12.9566Z" fill="#F2F6FC" stroke="#231F20" stroke-width="0.248345"/>
<path d="M7.52179 4.26086H5.34786C4.19474 4.26086 3.08884 4.71894 2.27346 5.53431C1.45808 6.34969 1 7.45557 1 8.60869V39.0435C1 40.1966 1.45808 41.3025 2.27346 42.1178C3.08884 42.9332 4.19474 43.3913 5.34786 43.3913H18.3914M37.9568 4.26086H40.1307C41.2839 4.26086 42.3898 4.71894 43.2051 5.53431C44.0205 6.34969 44.4786 7.45557 44.4786 8.60869V30.3478" stroke="#231F20" stroke-width="0.496691" stroke-linejoin="round"/>
<path d="M11.8693 3.17391C11.8693 1.97329 10.896 1 9.69541 1C8.49479 1 7.52148 1.97329 7.52148 3.17391V5.34782C7.52148 6.54844 8.49479 7.52174 9.69541 7.52174C10.896 7.52174 11.8693 6.54844 11.8693 5.34782V3.17391Z" stroke="#231F20" stroke-width="0.496691" stroke-linejoin="round"/>
<path d="M20.5651 3.17391C20.5651 1.97329 19.5918 1 18.3912 1C17.1906 1 16.2173 1.97329 16.2173 3.17391V5.34782C16.2173 6.54844 17.1906 7.52174 18.3912 7.52174C19.5918 7.52174 20.5651 6.54844 20.5651 5.34782V3.17391Z" stroke="#231F20" stroke-width="0.496691" stroke-linejoin="round"/>
<path d="M29.2609 3.17391C29.2609 1.97329 28.2876 1 27.087 1C25.8864 1 24.9131 1.97329 24.9131 3.17391V5.34782C24.9131 6.54844 25.8864 7.52174 27.087 7.52174C28.2876 7.52174 29.2609 6.54844 29.2609 5.34782V3.17391Z" stroke="#231F20" stroke-width="0.496691" stroke-linejoin="round"/>
<path d="M37.9563 3.17391C37.9563 1.97329 36.983 1 35.7823 1C34.5817 1 33.6084 1.97329 33.6084 3.17391V5.34782C33.6084 6.54844 34.5817 7.52174 35.7823 7.52174C36.983 7.52174 37.9563 6.54844 37.9563 5.34782V3.17391Z" stroke="#231F20" stroke-width="0.496691" stroke-linejoin="round"/>
<path d="M11.8696 4.26086H16.2175" stroke="#231F20" stroke-width="0.496691" stroke-linejoin="round"/>
<path d="M20.5649 4.26086H24.9128" stroke="#231F20" stroke-width="0.496691" stroke-linejoin="round"/>
<path d="M29.2607 4.26086H33.6086" stroke="#231F20" stroke-width="0.496691" stroke-linejoin="round"/>
<path d="M1 10.7826H44.4786" stroke="#231F20" stroke-width="0.496691" stroke-linejoin="round"/>
<path d="M12.9564 17.3043H6.43457V23.8261H12.9564V17.3043Z" stroke="#231F20" stroke-width="0.496691" stroke-linejoin="round"/>
<path d="M25.9998 17.3044H19.478V23.8261H25.9998V17.3044Z" stroke="#231F20" stroke-width="0.496691" stroke-linejoin="round"/>
<path d="M12.9564 30.3478H6.43457V36.8696H12.9564V30.3478Z" stroke="#231F20" stroke-width="0.496691" stroke-linejoin="round"/>
<path d="M25.9998 30.3478H19.478V36.8696H25.9998V30.3478Z" stroke="#231F20" stroke-width="0.496691" stroke-linejoin="round"/>
<path d="M37.9563 39.0435V29.2609C37.9563 28.6843 37.7272 28.1314 37.3195 27.7237C36.9118 27.316 36.3589 27.087 35.7823 27.087C35.2058 27.087 34.6528 27.316 34.2451 27.7237C33.8374 28.1314 33.6084 28.6843 33.6084 29.2609V46.6522C33.6084 47.8053 34.0665 48.9112 34.8819 49.7266C35.6972 50.5419 36.8031 51 37.9563 51H46.652C47.8051 51 48.911 50.5419 49.7264 49.7266C50.5418 48.9112 50.9998 47.8053 50.9998 46.6522V36.8696C50.9998 36.293 50.7708 35.7401 50.3631 35.3324C49.9554 34.9247 49.4025 34.6957 48.8259 34.6957C48.2493 34.6957 47.6964 34.9247 47.2887 35.3324C46.881 35.7401 46.652 36.293 46.652 36.8696V39.0435" stroke="#231F20" stroke-width="0.496691" stroke-linejoin="round"/>
<path d="M37.9567 39.0435V34.6957C37.9567 34.1191 38.1858 33.5662 38.5935 33.1585C39.0012 32.7508 39.5541 32.5217 40.1307 32.5217C40.7072 32.5217 41.2602 32.7508 41.6679 33.1585C42.0756 33.5662 42.3046 34.1191 42.3046 34.6957V39.0435V35.7826C42.3046 35.2061 42.5336 34.6531 42.9413 34.2454C43.349 33.8377 43.902 33.6087 44.4785 33.6087C45.0551 33.6087 45.608 33.8377 46.0157 34.2454C46.4234 34.6531 46.6525 35.2061 46.6525 35.7826V37.9565M39.3807 17.9131C38.8645 17.5173 38.2322 17.3028 37.5817 17.3028C36.9313 17.3028 36.299 17.5173 35.7828 17.9131C35.2666 17.5173 34.6343 17.3028 33.9839 17.3028C33.3334 17.3028 32.7011 17.5173 32.185 17.9131C31.9535 18.0838 31.7653 18.3065 31.6357 18.5633C31.506 18.8201 31.4385 19.1037 31.4385 19.3913C31.4385 19.679 31.506 19.9626 31.6357 20.2193C31.7653 20.4761 31.9535 20.6988 32.185 20.8696L35.7828 23.8261L39.3807 20.8696C39.6121 20.6988 39.8003 20.4761 39.9299 20.2193C40.0596 19.9626 40.1271 19.679 40.1271 19.3913C40.1271 19.1037 40.0596 18.8201 39.9299 18.5633C39.8003 18.3065 39.6121 18.0838 39.3807 17.9131Z" stroke="#231F20" stroke-width="0.496691" stroke-linejoin="round"/>
<path d="M33.6087 43.3913H27.0869" stroke="#231F20" stroke-width="0.496691" stroke-linejoin="round"/>
<path d="M24.9128 43.3914H20.5649" stroke="#231F20" stroke-width="0.496691" stroke-linejoin="round"/>
</svg>
