<svg width="50" height="50" viewBox="0 0 50 50" fill="none" xmlns="http://www.w3.org/2000/svg">
<path d="M3.68916 13.6598C4.42464 13.5692 5.17097 13.6364 5.87846 13.8568C6.58595 14.0772 7.23837 14.4458 7.79229 14.9381C8.88291 15.9047 9.23805 17.6791 10.8887 17.8781C11.0996 17.9032 18.3102 17.3766 18.3102 17.3766C18.4589 17.3646 18.6028 17.3181 18.7304 17.2407C18.858 17.1634 18.9658 17.0574 19.0453 16.9311C19.1248 16.8048 19.1738 16.6618 19.1884 16.5133C19.2029 16.3648 19.1826 16.2149 19.1292 16.0756L14.5473 4.42685C14.4917 4.2817 14.4722 4.12521 14.4906 3.97085C14.5089 3.8165 14.5645 3.66892 14.6526 3.54084C14.7407 3.41276 14.8586 3.30803 14.9962 3.23566C15.1337 3.1633 15.2868 3.12549 15.4423 3.12548L16.0358 3.1249C16.9664 3.12233 17.8836 3.34575 18.7087 3.77596C19.5339 4.20617 20.2422 4.83031 20.7729 5.59473L27.9544 16.0291C28.0803 16.2106 28.2514 16.3561 28.4508 16.4511C28.6502 16.5461 28.871 16.5874 29.0912 16.5708L37.1814 15.9488C38.972 15.8079 40.7638 16.2066 42.3256 17.0937C43.4384 17.6559 44.4987 18.3163 45.494 19.0671C46.0993 19.4757 46.5631 20.0618 46.8216 20.7448C47.2274 22.3729 45.2335 23.7006 43.8068 23.7023L9.97243 23.7359C9.63607 23.7363 9.30519 23.6508 9.01112 23.4875C8.71706 23.3242 8.46955 23.0885 8.29205 22.8028L3.22118 14.6405C3.16497 14.5484 3.13263 14.4437 3.12709 14.3359C3.12155 14.2282 3.14299 14.1207 3.18946 14.0233C3.23593 13.926 3.30596 13.8417 3.39322 13.7782C3.48048 13.7147 3.5822 13.674 3.68916 13.6598ZM46.875 42.1876C46.875 43.1147 46.6001 44.021 46.085 44.7918C45.5699 45.5627 44.8378 46.1635 43.9813 46.5183C43.1248 46.8731 42.1823 46.9659 41.273 46.785C40.3637 46.6042 39.5285 46.1577 38.8729 45.5022C38.2173 44.8466 37.7709 44.0114 37.59 43.1021C37.4092 42.1928 37.502 41.2503 37.8568 40.3938C38.2116 39.5372 38.8124 38.8051 39.5832 38.2901C40.3541 37.775 41.2604 37.5001 42.1875 37.5001C43.4303 37.5014 44.6218 37.9957 45.5005 38.8745C46.3793 39.7533 46.8736 40.9448 46.875 42.1876ZM40.625 42.1876C40.625 42.4966 40.7166 42.7987 40.8883 43.0557C41.06 43.3126 41.304 43.5129 41.5895 43.6311C41.875 43.7494 42.1892 43.7804 42.4923 43.7201C42.7954 43.6598 43.0738 43.511 43.2923 43.2924C43.5108 43.0739 43.6597 42.7955 43.7199 42.4924C43.7802 42.1893 43.7493 41.8752 43.631 41.5896C43.5128 41.3041 43.3125 41.0601 43.0555 40.8884C42.7986 40.7167 42.4965 40.6251 42.1875 40.6251C41.7732 40.6255 41.376 40.7903 41.0831 41.0832C40.7901 41.3761 40.6254 41.7733 40.625 42.1876Z" fill="#3477F6"/>
<path d="M18.75 40.625H21.875V43.75H18.75V40.625Z" fill="#3477F6"/>
<path d="M12.5 40.625H15.625V43.75H12.5V40.625Z" fill="#3477F6"/>
<path d="M31.25 40.625H34.375V43.75H31.25V40.625Z" fill="#3477F6"/>
<path d="M25 40.625H28.125V43.75H25V40.625Z" fill="#3477F6"/>
<path d="M6.25 45.3125C4.52411 45.3125 3.125 43.9134 3.125 42.1875C3.125 40.4616 4.52411 39.0625 6.25 39.0625C7.97589 39.0625 9.375 40.4616 9.375 42.1875C9.375 43.9134 7.97589 45.3125 6.25 45.3125Z" fill="#3477F6"/>
</svg>
