<svg width="58" height="58" viewBox="0 0 58 58" fill="none" xmlns="http://www.w3.org/2000/svg">
<path d="M34.5573 34.0533C32.9576 35.3431 30.9646 36.0464 28.9098 36.0464C26.8549 36.0464 24.8619 35.3431 23.2622 34.0533C22.7735 33.6471 22.1435 33.4517 21.5107 33.5101C20.8779 33.5684 20.2942 33.8757 19.8881 34.3644C19.4819 34.8531 19.2864 35.4832 19.3448 36.1159C19.4031 36.7487 19.7104 37.3324 20.1991 37.7386C22.6432 39.7789 25.726 40.8965 28.9098 40.8965C32.0935 40.8965 35.1763 39.7789 37.6204 37.7386C38.1091 37.3324 38.4164 36.7487 38.4747 36.1159C38.5331 35.4832 38.3377 34.8531 37.9315 34.3644C37.7303 34.1224 37.4835 33.9224 37.2051 33.7759C36.9267 33.6293 36.6221 33.5389 36.3088 33.5101C35.676 33.4517 35.046 33.6471 34.5573 34.0533ZM22.2332 25.2231C22.6816 25.6688 23.2881 25.9189 23.9203 25.9189C24.5525 25.9189 25.159 25.6688 25.6074 25.2231C26.0531 24.7747 26.3033 24.1682 26.3033 23.536C26.3033 22.9038 26.0531 22.2973 25.6074 21.8489C24.2379 20.5495 22.422 19.8251 20.5342 19.8251C18.6463 19.8251 16.8304 20.5495 15.461 21.8489C15.2104 22.0634 15.007 22.3274 14.8634 22.6243C14.7197 22.9212 14.639 23.2446 14.6263 23.5741C14.6135 23.9037 14.6691 24.2323 14.7894 24.5394C14.9097 24.8465 15.0922 25.1254 15.3254 25.3586C15.5586 25.5918 15.8375 25.7743 16.1446 25.8946C16.4517 26.0149 16.7803 26.0705 17.1099 26.0577C17.4394 26.045 17.7628 25.9643 18.0597 25.8207C18.3566 25.677 18.6206 25.4736 18.8351 25.2231C19.0576 24.9988 19.3223 24.8207 19.6139 24.6992C19.9055 24.5778 20.2183 24.5152 20.5342 24.5152C20.8501 24.5152 21.1629 24.5778 21.4545 24.6992C21.7461 24.8207 22.0108 24.9988 22.2332 25.2231ZM42.3586 21.8489C40.9891 20.5495 39.1732 19.8251 37.2854 19.8251C35.3975 19.8251 33.5816 20.5495 32.2121 21.8489C31.8201 22.3067 31.6152 22.8956 31.6385 23.4978C31.6618 24.1001 31.9114 24.6714 32.3376 25.0976C32.7638 25.5238 33.3351 25.7734 33.9374 25.7967C34.5396 25.82 35.1285 25.6151 35.5863 25.2231C35.8088 24.9988 36.0734 24.8207 36.365 24.6992C36.6567 24.5778 36.9694 24.5152 37.2854 24.5152C37.6013 24.5152 37.914 24.5778 38.2057 24.6992C38.4973 24.8207 38.7619 24.9988 38.9844 25.2231C39.4328 25.6688 40.0393 25.9189 40.6715 25.9189C41.3037 25.9189 41.9102 25.6688 42.3586 25.2231C42.8043 24.7747 43.0544 24.1682 43.0544 23.536C43.0544 22.9038 42.8043 22.2973 42.3586 21.8489ZM28.9098 4.78662C24.1768 4.78662 19.5501 6.19011 15.6148 8.8196C11.6795 11.4491 8.61231 15.1865 6.80109 19.5592C4.98986 23.9318 4.51596 28.7434 5.43932 33.3854C6.36267 38.0275 8.64181 42.2914 11.9885 45.6381C15.3352 48.9848 19.5992 51.264 24.2412 52.1873C28.8832 53.1107 33.6948 52.6368 38.0675 50.8256C42.4402 49.0143 46.1775 45.9471 48.807 42.0118C51.4365 38.0765 52.84 33.4498 52.84 28.7169C52.84 25.5743 52.221 22.4625 51.0184 19.5592C49.8158 16.6558 48.0531 14.0178 45.831 11.7956C43.6089 9.5735 40.9708 7.81081 38.0675 6.6082C35.1641 5.4056 32.0523 4.78662 28.9098 4.78662ZM28.9098 47.8611C25.1234 47.8611 21.4221 46.7383 18.2738 44.6347C15.1256 42.5311 12.6718 39.5412 11.2228 36.0431C9.77384 32.5449 9.39472 28.6956 10.1334 24.982C10.8721 21.2684 12.6954 17.8572 15.3728 15.1799C18.0501 12.5025 21.4613 10.6792 25.1749 9.94052C28.8885 9.20184 32.7378 9.58096 36.2359 11.0299C39.7341 12.4789 42.724 14.9327 44.8276 18.0809C46.9312 21.2292 48.054 24.9305 48.054 28.7169C48.054 33.7942 46.037 38.6636 42.4468 42.2539C38.8565 45.8441 33.9871 47.8611 28.9098 47.8611Z" fill="#3477F6"/>
</svg>
