<svg width="12" height="12" viewBox="0 0 12 12" fill="none" xmlns="http://www.w3.org/2000/svg">
<g clip-path="url(#clip0_7105_3150)">
<path d="M3.00016 3.1875C3.41266 3.1875 3.75016 2.85 3.75016 2.4375V2.0625C3.75016 1.65 3.41266 1.3125 3.00016 1.3125C2.58766 1.3125 2.25016 1.65 2.25016 2.0625V2.4375C2.25016 2.85 2.58766 3.1875 3.00016 3.1875ZM2.62516 2.0625C2.62516 1.85625 2.79391 1.6875 3.00016 1.6875C3.20641 1.6875 3.37516 1.85625 3.37516 2.0625V2.4375C3.37516 2.64375 3.20641 2.8125 3.00016 2.8125C2.79391 2.8125 2.62516 2.64375 2.62516 2.4375V2.0625ZM11.6252 5.4375C10.5564 5.5875 9.24391 6.84375 8.38141 7.70625C8.30641 7.78125 8.32516 7.89375 8.40016 7.96875C8.51266 8.0625 8.62516 7.9875 8.66266 7.95C10.5752 6 11.4189 5.8125 11.6252 5.8125C11.7377 5.8125 11.8127 5.7375 11.8127 5.625C11.8127 5.5125 11.7189 5.41875 11.6252 5.4375ZM7.98766 8.19375C7.85641 8.34375 7.66891 8.4375 7.48141 8.4375C7.21891 8.4375 6.95641 8.55 6.75016 8.7375L6.54391 8.94375L6.31891 5.71875C6.45016 5.625 6.56266 5.45625 6.56266 5.25C6.56266 5.025 6.43141 4.81875 6.22516 4.74375L6.18766 4.10625C6.18766 3.99375 6.09391 3.91875 5.98141 3.9375C5.86891 3.9375 5.79391 4.03125 5.81266 4.14375L5.85016 4.6875H4.93141L3.78766 3.825C3.56266 3.65625 3.28141 3.5625 3.00016 3.5625H1.93141C1.81891 3.5625 1.74391 3.6375 1.74391 3.75C1.74391 3.8625 1.81891 3.9375 1.93141 3.9375H2.25016C2.13766 4.0875 2.06266 4.29375 2.06266 4.5V4.6875H1.31266C1.10641 4.6875 0.937659 4.51875 0.937659 4.3125C0.937659 4.10625 1.10641 3.9375 1.31266 3.9375C1.42516 3.9375 1.50016 3.8625 1.50016 3.75C1.50016 3.6375 1.42516 3.5625 1.31266 3.5625C0.900159 3.5625 0.562659 3.9 0.562659 4.3125C0.562659 4.5375 0.656409 4.74375 0.825159 4.875C0.656409 5.00625 0.562659 5.2125 0.562659 5.4375V6.1875C0.562659 6.6 0.900159 6.9375 1.31266 6.9375H2.00641L1.78141 9.675C1.78141 9.76875 1.85641 9.8625 1.95016 9.88125C1.95016 9.88125 2.11891 9.9 2.15641 9.7125L2.36266 7.21875C2.53141 7.5 3.13141 7.66875 3.13141 7.66875L2.86891 10.3313C2.85016 10.5188 2.68141 10.6688 2.49391 10.6688C2.38141 10.6688 2.11891 10.575 2.11891 10.2563C2.11891 10.1438 2.04391 10.0688 1.95016 10.05C1.83766 10.0313 1.76266 10.125 1.74391 10.2188C1.72516 10.3875 1.78141 10.5563 1.87516 10.7063C1.74391 10.7438 1.59391 10.7813 1.48141 10.8563L0.300159 11.4375C0.206409 11.475 0.168909 11.5875 0.225159 11.6813C0.300159 11.8313 0.450159 11.775 0.468909 11.7563L1.65016 11.175C1.83766 11.0813 2.04391 11.025 2.25016 11.025H3.07516C3.31891 11.025 3.56266 10.9313 3.73141 10.7438C4.03141 10.4438 4.44391 10.275 4.87516 10.275C5.40016 10.275 5.92516 10.0688 6.28141 9.69375L7.01266 8.9625C7.12516 8.85 7.29391 8.775 7.48141 8.775C7.80016 8.775 8.08141 8.64375 8.28766 8.38125C8.34391 8.30625 8.34391 8.175 8.25016 8.11875C8.15641 8.1 8.04391 8.11875 7.98766 8.19375ZM2.04391 6.5625H1.31266C1.10641 6.5625 0.937659 6.39375 0.937659 6.1875V5.4375C0.937659 5.23125 1.10641 5.0625 1.31266 5.0625H2.06266L2.04391 6.5625ZM3.46891 10.5188C3.37516 10.6125 3.26266 10.65 3.15016 10.6688C3.20641 10.575 3.24391 10.4813 3.24391 10.3688L3.50641 7.8L3.95641 7.96875V9.5625C3.95641 9.76875 4.03141 9.9375 4.16266 10.0875C3.90016 10.1813 3.65641 10.3313 3.46891 10.5188ZM5.06266 9.5625C5.06266 9.7875 4.85641 9.975 4.63141 9.9375C4.44391 9.9 4.31266 9.73125 4.31266 9.54375V7.95C4.31266 7.8375 4.23766 7.725 4.12516 7.6875L2.98141 7.2375C2.81266 7.1625 2.66266 7.05 2.56891 6.9C2.85016 6.825 3.24391 6.61875 3.56266 6.16875C3.56266 6.16875 3.50641 6.5625 3.65641 6.5625L4.80016 7.14375C4.95016 7.21875 5.06266 7.3875 5.06266 7.55625V9.5625ZM5.38141 9.8625C5.41891 9.76875 5.43766 9.675 5.43766 9.5625V7.51875C5.43766 7.2 5.25016 6.91875 4.96891 6.76875L3.93766 6.2625V5.4375C3.93766 5.4375 4.31266 5.8125 4.78141 5.8125H5.92516L6.18766 9.3C6.18766 9.3 5.88766 9.75 5.38141 9.8625ZM6.00016 5.4375H4.78141C4.63141 5.4375 4.50016 5.4 4.38766 5.30625L3.48766 4.63125C3.41266 4.575 3.28141 4.59375 3.22516 4.66875C3.16891 4.74375 3.18766 4.875 3.26266 4.93125L3.56266 5.15625C3.56266 5.15625 3.33766 6.2625 2.43766 6.525C2.43766 6.4875 2.43766 4.5 2.43766 4.5C2.43766 4.18125 2.68141 3.9375 3.00016 3.9375C3.20641 3.9375 3.39391 3.99375 3.56266 4.125L4.81891 5.0625H6.00016C6.11266 5.0625 6.18766 5.1375 6.18766 5.25C6.18766 5.3625 6.11266 5.4375 6.00016 5.4375ZM7.87516 2.0625H9.75016C10.0689 2.0625 10.3127 1.81875 10.3127 1.5C10.3127 1.25625 10.1439 1.03125 9.91891 0.95625C9.84391 0.525 9.46891 0.1875 9.00016 0.1875C8.66266 0.1875 8.34391 0.375 8.17516 0.675C8.11891 0.76875 8.15641 0.88125 8.25016 0.9375C8.34391 0.99375 8.45641 0.95625 8.51266 0.8625C8.60641 0.675 8.79391 0.5625 9.00016 0.5625C9.31891 0.5625 9.56266 0.80625 9.56266 1.125C9.56266 1.2375 9.63766 1.3125 9.75016 1.3125C9.86266 1.3125 9.93766 1.3875 9.93766 1.5C9.93766 1.6125 9.86266 1.6875 9.75016 1.6875H7.87516C7.76266 1.6875 7.68766 1.6125 7.68766 1.5C7.68766 1.3875 7.76266 1.3125 7.87516 1.3125C7.98766 1.3125 8.06266 1.2375 8.06266 1.125C8.06266 1.0125 7.98766 0.9375 7.87516 0.9375C7.55641 0.9375 7.31266 1.18125 7.31266 1.5C7.31266 1.81875 7.55641 2.0625 7.87516 2.0625Z" fill="#E0E0E0" stroke="#E0E0E0" stroke-width="0.2"/>
<path d="M10.6688 1.33125C10.9125 1.425 11.0625 1.63125 11.0625 1.875C11.0625 1.9875 11.1375 2.0625 11.25 2.0625C11.3625 2.0625 11.4375 2.1375 11.4375 2.25C11.4375 2.3625 11.3625 2.4375 11.25 2.4375H9.375C9.31875 2.4375 9.28125 2.41875 9.24375 2.38125C9.16875 2.30625 9.05625 2.30625 8.98125 2.4C8.90625 2.475 8.925 2.5875 9 2.6625C9.1125 2.75625 9.24375 2.8125 9.375 2.8125H11.25C11.5688 2.8125 11.8125 2.56875 11.8125 2.25C11.8125 2.00625 11.6438 1.78125 11.4188 1.70625C11.3625 1.36875 11.1187 1.0875 10.7812 0.975003C10.6875 0.937503 10.575 0.993753 10.5375 1.0875C10.5188 1.2 10.575 1.3125 10.6688 1.33125ZM1.3125 6C1.3125 6.1125 1.3875 6.1875 1.5 6.1875C1.6125 6.1875 1.6875 6.1125 1.6875 6V5.625C1.6875 5.5125 1.6125 5.4375 1.5 5.4375C1.3875 5.4375 1.3125 5.5125 1.3125 5.625V6Z" fill="#E0E0E0" stroke="#E0E0E0" stroke-width="0.2"/>
</g>
<defs>
<clipPath id="clip0_7105_3150">
<rect width="12" height="12" fill="white"/>
</clipPath>
</defs>
</svg>
