<svg width="20" height="20" viewBox="0 0 20 20" fill="none" xmlns="http://www.w3.org/2000/svg">
<g clip-path="url(#clip0_6957_976)">
<path d="M14.1665 1.66675H5.83317C3.53198 1.66675 1.6665 3.53223 1.6665 5.83342V14.1667C1.6665 16.4679 3.53198 18.3334 5.83317 18.3334H14.1665C16.4677 18.3334 18.3332 16.4679 18.3332 14.1667V5.83342C18.3332 3.53223 16.4677 1.66675 14.1665 1.66675Z" stroke="#333333" stroke-width="2" stroke-linecap="round" stroke-linejoin="round"/>
<path d="M13.3333 9.47501C13.4361 10.1685 13.3176 10.8769 12.9947 11.4992C12.6718 12.1215 12.1609 12.6262 11.5346 12.9414C10.9083 13.2566 10.1986 13.3663 9.50641 13.255C8.81419 13.1436 8.17472 12.8167 7.67895 12.321C7.18318 11.8252 6.85636 11.1857 6.74497 10.4935C6.63359 9.8013 6.74331 9.09159 7.05852 8.46532C7.37374 7.83905 7.87841 7.32812 8.50074 7.00521C9.12307 6.68229 9.83138 6.56383 10.5249 6.66667C11.2324 6.77158 11.8873 7.10123 12.393 7.60693C12.8987 8.11263 13.2283 8.76757 13.3333 9.47501Z" stroke="#333333" stroke-width="2" stroke-linecap="round" stroke-linejoin="round"/>
<path d="M14.5835 5.41675H14.5918" stroke="#333333" stroke-width="2" stroke-linecap="round" stroke-linejoin="round"/>
</g>
<defs>
<clipPath id="clip0_6957_976">
<rect width="20" height="20" fill="white"/>
</clipPath>
</defs>
</svg>
