<svg width="20" height="20" viewBox="0 0 20 20" fill="none" xmlns="http://www.w3.org/2000/svg">
<path d="M13.3335 6.66675C14.6596 6.66675 15.9313 7.19353 16.869 8.13121C17.8067 9.0689 18.3335 10.3407 18.3335 11.6667V17.5001H15.0002V11.6667C15.0002 11.2247 14.8246 10.8008 14.512 10.4882C14.1994 10.1757 13.7755 10.0001 13.3335 10.0001C12.8915 10.0001 12.4675 10.1757 12.155 10.4882C11.8424 10.8008 11.6668 11.2247 11.6668 11.6667V17.5001H8.3335V11.6667C8.3335 10.3407 8.86028 9.0689 9.79796 8.13121C10.7356 7.19353 12.0074 6.66675 13.3335 6.66675Z" fill="#333333"/>
<path d="M4.99984 7.5H1.6665V17.5H4.99984V7.5Z" fill="#333333"/>
<path d="M3.33317 5.00008C4.25365 5.00008 4.99984 4.25389 4.99984 3.33341C4.99984 2.41294 4.25365 1.66675 3.33317 1.66675C2.4127 1.66675 1.6665 2.41294 1.6665 3.33341C1.6665 4.25389 2.4127 5.00008 3.33317 5.00008Z" fill="#333333"/>
</svg>
