<svg width="173" height="50" viewBox="0 0 173 50" fill="none" xmlns="http://www.w3.org/2000/svg">
<path d="M65.5036 23.5646C65.48 23.403 65.4456 23.2413 65.4219 23.0691C65.3639 22.9883 65.3058 22.884 65.2585 22.8032C65.2004 22.7097 65.1875 22.5948 65.1531 22.4906C65.0822 22.329 65.0134 22.1546 64.9424 21.9929C64.8027 21.6697 64.6629 21.3337 64.5339 20.9998C64.4866 20.8828 64.5447 20.7212 64.5576 20.5021C64.7446 20.6297 64.8607 20.7679 64.9424 20.9189C63.2137 14.5366 59.2274 9.05815 53.8865 5.38103C53.7338 5.35764 53.594 5.33424 53.4414 5.31085C52.8114 5.20877 52.1685 5.16198 51.5364 5.0918C51.4912 5.0918 51.4439 5.10456 51.3859 5.11519C51.3859 5.13858 51.3859 5.14922 51.3859 5.17261C51.631 5.2194 51.8761 5.27682 52.1212 5.32361C52.1212 5.3704 52.1212 5.41506 52.1212 5.46185C51.947 5.49588 51.7707 5.51927 51.6073 5.55542C51.3858 5.60009 51.1622 5.64687 50.9537 5.71706C50.7193 5.80851 50.4978 5.97014 50.2635 6.02756C49.8421 6.10838 49.4099 6.10838 48.9885 6.19132C48.7777 6.22535 48.5928 6.35295 48.3929 6.43377C48.4875 6.5954 48.5692 6.75703 48.6616 6.90803C48.767 7.0569 48.8831 7.17387 49.0014 7.31211C49.0487 7.38016 49.0831 7.48437 49.1411 7.50777C49.6313 7.72682 50.1237 7.65876 50.6247 7.54392C50.7666 7.50777 50.9752 7.55455 51.0569 7.646C51.373 8.00542 51.6417 8.38611 51.9234 8.76892C52.0395 8.94118 52.1921 8.99861 52.3427 8.86037C52.5061 8.7115 52.6716 8.72213 52.8694 8.75616C53.0221 8.77955 53.1855 8.74552 53.2909 8.73276C53.2543 8.50308 53.149 8.26063 53.2199 8.16705C53.3253 8.05221 53.5596 8.05221 53.8047 7.98203C53.6994 7.85442 53.6284 7.77361 53.5467 7.69279C53.465 7.62474 53.3597 7.57795 53.3016 7.49713C53.2199 7.38016 53.1275 7.21853 53.149 7.10369C53.1619 7.02287 53.3833 6.97608 53.5123 6.94205C53.6521 6.91866 53.8047 6.94205 53.9574 6.91866C54.1208 6.90803 54.3079 6.91866 54.2842 6.65282C54.2842 6.60603 54.4949 6.50182 54.5766 6.52522C54.8562 6.5954 55.1378 6.69961 55.4066 6.81445C55.4754 6.84848 55.5098 6.95269 55.57 7.02287C55.4883 7.06966 55.4173 7.13771 55.3356 7.15047C55.0669 7.2079 54.7852 7.25468 54.4584 7.31211C54.5874 7.55455 54.6454 7.84379 54.8089 7.93524C55.2883 8.22447 55.8151 8.4329 56.4107 8.45629C56.6451 8.46692 56.8773 8.62855 57.1117 8.73276C57.1009 8.76892 57.1009 8.81358 57.088 8.84973C56.9826 8.87313 56.8773 8.93055 56.7848 8.90716C56.6214 8.87313 56.4688 8.79231 56.3183 8.72213C55.9893 8.57113 55.6625 8.52647 55.241 8.66471C55.441 8.73276 55.6044 8.75616 55.7098 8.83697C55.8151 8.91779 55.9785 9.11558 55.9441 9.173C55.8388 9.38142 55.6754 9.21979 55.5464 9.1496C55.5098 9.12621 55.4754 9.10282 55.441 9.07942C55.2066 8.94118 55.1013 8.97734 55.0432 9.25381C54.9615 9.64726 54.5766 9.83228 54.2025 9.70468C53.9445 9.61323 53.665 9.57708 53.3962 9.54305C53.0802 9.50902 52.706 9.58984 52.448 9.44947C52.1556 9.31124 51.8868 9.34526 51.6073 9.28784C51.3149 9.23042 50.9988 9.11558 50.7774 8.93055C50.4978 8.69874 50.8935 8.64131 50.9408 8.5605C50.8698 8.39887 50.8118 8.27126 50.7537 8.14366C50.6247 8.15642 50.4742 8.15642 50.3215 8.17769C50.042 8.23724 50.0055 8.37547 50.1818 8.59453C50.2506 8.67534 50.3323 8.74552 50.3796 8.83697C50.4376 8.93055 50.4613 9.04539 50.4978 9.13897C50.3925 9.173 50.2871 9.21979 50.1818 9.21979C49.9238 9.23042 49.655 9.173 49.4206 9.23042C49.1411 9.3006 48.7777 9.38142 48.5692 9.53029C48.5219 9.56644 48.4875 9.61323 48.4509 9.65789C48.3585 9.83228 48.2531 9.9131 48.137 9.97052C48.0424 10.0173 47.937 10.0279 47.8317 10.0513C47.6683 10.0854 47.4705 10.0854 47.3651 10.1896C47.0598 10.4788 46.7222 10.583 46.3352 10.4448C46.2535 10.4108 46.1718 10.398 46.0557 10.364C46.0793 10.5128 46.103 10.6064 46.1137 10.6979C45.6708 10.8957 45.215 10.432 44.7462 10.7808C44.8753 10.8382 44.9806 10.8957 45.0731 10.9297C45.215 10.9765 45.3547 11.0105 45.5052 11.0339C46.0557 11.1147 46.2771 11.6358 46.5696 11.959C46.8964 12.3163 46.5459 12.9309 45.9611 12.8714C45.1784 12.8033 44.385 12.7565 43.6002 12.6523C43.2734 12.6055 43.0412 12.7098 42.7724 12.8608C43.0756 13.3584 42.9229 13.8093 42.7359 14.2708C42.7122 14.3282 42.7015 14.4452 42.7251 14.4558C42.981 14.5834 42.9229 14.8259 42.9358 15.0343C42.9702 15.3916 43.0046 15.4277 43.368 15.3469C43.7421 15.2661 44.0561 15.3108 44.256 15.6808C44.3721 15.8892 44.5484 15.902 44.7699 15.819C45.0279 15.7276 45.2967 15.6574 45.5525 15.6127C45.7762 15.566 46.4879 15.3469 46.6405 15.1959C46.8039 15.0449 47.0598 14.8152 47.0254 14.6642C46.9566 14.375 47.0383 14.1793 47.2253 14.0283C47.4232 13.8773 47.6575 13.7965 47.8897 13.6923C48.008 13.6476 48.1478 13.6583 48.2531 13.6009C48.3219 13.5668 48.3929 13.4626 48.3821 13.3924C48.3821 13.0118 48.6036 12.814 48.9541 12.9884C49.4335 13.218 49.8313 13.0798 50.2506 12.8841C50.7064 12.6757 51.3256 12.814 51.5364 13.2648C51.7471 13.7051 52.1341 13.9135 52.519 14.0858C52.9511 14.2835 53.336 14.5026 53.6757 14.8152C53.9445 15.0577 54.2842 15.2661 54.166 15.7382C54.2606 15.6 54.353 15.4724 54.4476 15.3341C54.424 15.3341 54.4003 15.3235 54.3767 15.3235C54.3659 15.1853 54.353 15.0449 54.3423 14.896C54.5057 14.9067 54.682 14.9067 54.9035 14.9194C54.482 14.6515 54.1079 14.341 53.6757 14.1793C53.3597 14.0624 53.149 13.9348 52.9748 13.6583C52.8694 13.4966 52.7404 13.301 52.577 13.2308C52.2502 13.0926 52.1212 12.8948 52.1685 12.5375C52.2158 12.5247 52.2739 12.5013 52.319 12.4907C52.4717 12.4439 52.6114 12.4439 52.7297 12.6523C52.7748 12.7331 52.9275 12.7459 53.0329 12.7906C53.149 12.8501 53.2543 12.9075 53.3489 12.9884C53.5833 13.1734 53.7811 13.4031 54.0391 13.5668C54.3294 13.7625 54.682 13.8773 54.9723 14.0751C55.1142 14.1666 55.241 14.341 55.3012 14.5026C55.312 14.5366 55.3227 14.56 55.3227 14.594C55.4066 15.1023 55.7334 15.4043 56.1075 15.6936C56.0022 16.1444 56.1763 16.4337 56.6558 16.5357C56.6451 16.3295 56.6322 16.1317 56.6214 15.936C56.9482 16.1317 56.9482 16.1317 57.0299 16.0168C56.8773 15.819 56.7268 15.6234 56.5741 15.4277C56.5032 15.3341 56.4215 15.2299 56.3527 15.1385C56.3763 15.1151 56.3871 15.0811 56.4107 15.0577C56.5268 15.0917 56.6451 15.1257 56.7741 15.1619C56.8192 15.0683 56.8902 15.0109 56.959 14.9769C57.088 14.9067 57.2407 14.9301 57.3804 15.0215C57.7201 15.2299 58.0814 15.1853 58.4211 15.1725C58.3265 14.9875 58.1179 14.7557 58.176 14.6408C58.3501 14.2835 58.3157 13.8093 58.7242 13.5668C58.8296 13.5073 58.9823 13.3818 59.0511 13.4158C59.251 13.52 59.5198 13.6476 59.5908 13.8199C59.7413 14.2006 60.01 14.3856 60.3841 14.2474C60.3024 14.1559 60.21 14.0624 60.1283 13.9709C60.2551 13.9241 60.3841 13.8539 60.5132 13.8327C60.6422 13.8093 60.7819 13.8093 60.9926 13.7965C60.9561 14.039 60.9217 14.224 60.8744 14.4898C60.969 14.5706 61.1324 14.711 61.2851 14.8599C61.5775 15.1491 61.8677 15.4277 62.1365 15.7276C62.1967 15.785 62.2311 15.97 62.1838 16.0041C62.115 16.0742 61.9623 16.1083 61.8806 16.087C61.5775 16.0041 61.1904 15.9594 61.0034 15.7616C60.3841 15.0917 59.5779 15.4511 58.8769 15.2767C58.864 15.2767 58.8533 15.2767 58.8425 15.2767C58.6898 15.5426 58.4791 15.3575 58.2921 15.3469C58.0943 15.3341 57.8943 15.3107 57.6965 15.2874C57.6836 15.3107 57.6728 15.3341 57.6621 15.3575C57.8018 15.4511 57.8599 15.5426 57.8491 15.6468C57.8362 15.717 57.8018 15.785 57.7438 15.8424C58.105 16.2359 58.3157 16.7442 58.8425 16.976C59.0059 17.0462 59.0984 17.1716 59.2747 16.9866C59.3091 16.942 59.4381 16.942 59.5305 16.9526C59.5542 16.9526 59.5907 16.9653 59.6015 16.976C59.7413 17.0462 59.8359 17.1844 59.9756 17.2652C60.0917 17.3354 60.3024 17.4268 60.3734 17.3694C60.6185 17.1716 60.8529 17.2992 61.0743 17.312C61.098 17.497 61.1216 17.6587 61.1431 17.8203C61.1668 17.9819 61.2141 18.1542 61.1904 18.3052C61.1904 18.318 61.1904 18.3286 61.1904 18.3392C61.156 18.5604 61.0743 18.7688 61.027 18.9879C61.0163 19.0219 61.0163 19.0559 61.0034 19.0793C60.898 19.6578 60.8292 19.7046 60.268 19.4962C60.081 19.426 59.8939 19.3813 59.694 19.3579C59.4381 19.3239 59.1693 19.3813 58.935 19.3005C58.4211 19.1389 57.9309 18.9305 57.4385 18.722C57.3331 18.6752 57.2278 18.5838 57.159 18.4796C56.9482 18.2244 56.7031 18.167 56.3527 18.2818C56.071 18.3754 56.0946 18.5944 56.0946 18.8262C56.0946 19.1495 55.9549 19.2877 55.6388 19.1963C55.3356 19.1027 55.0325 18.9879 54.7745 18.8135C54.1208 18.386 53.465 17.9926 52.648 17.9351C52.0975 17.8883 51.8288 17.3354 52.0051 16.8144C52.0395 16.7208 51.9922 16.6059 51.9685 16.5017C51.9341 16.3528 51.8868 16.2019 51.8417 16.0275C51.8051 16.0168 51.6998 15.9828 51.631 15.9126C51.4439 15.717 51.2568 15.7276 51.0354 15.8318C50.9644 15.8658 50.8591 15.9126 50.801 15.8892C50.414 15.7616 50.042 15.7616 49.6679 15.9232C49.6206 15.9466 49.526 15.8892 49.4572 15.8786C49.1992 15.8318 48.9304 15.7276 48.6853 15.7744C47.9607 15.902 47.2361 16.0636 46.5459 16.2827C45.903 16.4911 45.3074 16.5145 44.7226 16.1551C44.5484 16.0509 44.4667 16.0976 44.3721 16.2593C44.2904 16.4103 44.2216 16.5953 44.0926 16.6995C43.7421 16.976 43.3551 17.2184 42.981 17.4609C42.5725 17.7161 42.351 18.0627 42.3747 18.5476C42.3747 18.6518 42.3618 18.7901 42.2929 18.873C42.0242 19.2197 41.7425 19.5663 41.2867 19.7046C40.7148 19.8768 40.3277 20.2597 40.059 20.7679C39.8956 21.0678 39.7558 21.3911 39.6031 21.6931C39.487 21.9121 39.3709 22.1312 39.2183 22.329C39.0548 22.5374 38.9495 22.7564 39.0204 23.0223C39.1129 23.3796 39.2075 23.7496 39.3129 24.109C39.3236 24.1558 39.3344 24.2005 39.3473 24.2366C39.4053 24.4791 39.4053 24.7109 39.3709 24.93C39.3129 25.3 39.1366 25.6467 38.8678 25.9699C38.728 26.1316 38.7753 26.2251 38.857 26.374C38.9839 26.6165 39.1258 26.8717 39.171 27.1375C39.2312 27.4608 39.3946 27.682 39.616 27.901C40.1299 28.3987 40.7836 28.7794 41.076 29.4833C41.2523 29.9001 41.592 30.1426 41.9876 30.3638C42.3166 30.536 42.6671 30.7551 42.8885 31.0337C43.2046 31.4378 43.5787 31.4612 44.0109 31.3803C44.1743 31.3463 44.3377 31.3102 44.5011 31.2527C45.0494 31.0571 45.5891 31.0103 46.1374 31.2421C46.3825 31.3463 46.604 31.2761 46.8512 31.1485C47.6446 30.7445 48.4982 30.4446 49.3991 30.351C49.7733 30.317 49.913 30.468 49.9367 30.8359C49.9367 30.9061 49.9474 30.9869 49.9367 31.0571C49.9238 31.2868 50.042 31.3803 50.2635 31.357C50.5559 31.3229 50.8483 31.2995 51.1386 31.2868C51.4676 31.2761 51.7234 31.4271 51.947 31.6462C52.1556 31.8546 52.0739 32.0503 52.0287 32.2693C51.9922 32.4331 51.9922 32.6053 51.9578 32.767C51.9234 32.918 51.8997 33.0796 51.8051 33.1945C51.5256 33.5539 51.5256 33.9005 51.7471 34.2706C51.8653 34.4662 51.9814 34.6747 52.1341 34.849C52.577 35.3339 52.9275 35.8316 52.9984 36.5355C53.0565 37.1374 53.2672 37.7393 53.3962 38.339C53.4177 38.4773 53.4177 38.6516 53.3597 38.7665C53.1963 39.1259 52.9748 39.4619 52.7985 39.8086C52.6351 40.1552 52.4717 40.5125 52.39 40.872C52.2502 41.5993 52.5663 42.2352 52.9748 42.7903C53.1963 43.0901 53.2092 43.3794 53.1726 43.726C53.1146 44.2343 53.0458 44.7894 53.4306 45.1956C53.7703 45.5529 53.8865 45.9804 54.0606 46.4078C54.0972 46.5014 54.0606 46.629 54.0735 46.7439C54.0843 46.9183 54.0499 47.1841 54.1423 47.2415C54.2713 47.3223 54.5766 47.333 54.682 47.2288C55.2303 46.7205 56.0022 46.7545 56.6214 46.3844C56.9719 46.1782 57.3116 46.0038 57.5804 45.7039C57.9545 45.2998 58.3501 44.9064 58.7135 44.4789C58.9242 44.2237 59.2166 43.9238 59.2166 43.6452C59.2166 43.1476 59.4617 42.9413 59.8466 42.7435C60.2207 42.5478 60.5003 41.7503 60.3261 41.3568C60.21 41.1144 60.2788 40.9294 60.4422 40.755C60.898 40.2807 61.3539 39.8192 61.8226 39.3577C62.0785 39.1025 62.2548 38.8133 62.2892 38.4326C62.3365 37.9924 62.4289 37.5543 62.4999 37.114C62.5106 36.9992 62.5235 36.8588 62.4891 36.7567C62.2548 35.889 62.0677 35.0341 62.6052 34.2004C62.6396 34.143 62.6525 34.0622 62.6869 33.992C62.8267 33.7729 62.9665 33.5645 63.1191 33.3454C63.2481 33.1604 63.3642 32.9648 63.4696 32.7563C63.5405 32.6181 63.6093 32.4671 63.6566 32.3055C63.6566 32.2927 63.6695 32.2927 63.6803 32.2821C64.6264 31.3229 65.037 30.1192 65.3273 28.8495C65.3983 28.5369 65.3983 28.2009 65.4327 27.8542C64.9897 28.0499 64.6156 28.2243 64.2286 28.3859C64.1834 28.4093 64.0652 28.3753 64.0437 28.3391C63.9491 28.1435 63.8674 27.9478 63.7857 27.75C63.7276 27.6118 63.6911 27.4608 63.6093 27.3459C63.3406 26.9419 63.0482 26.5484 62.7686 26.155C62.7213 26.0848 62.7106 25.9806 62.6762 25.8891C62.5472 25.5531 62.4526 25.1958 62.2892 24.8832C62.115 24.5259 61.9387 24.1792 61.9623 23.7624C61.9731 23.6582 61.9516 23.554 61.9043 23.4604C61.728 23.0925 61.5409 22.7437 61.3668 22.3758C61.0507 21.7037 60.7346 21.0338 60.4186 20.3639C60.3734 20.2597 60.3497 20.1427 60.3153 20.0278C60.3368 20.0172 60.3734 20.0044 60.3971 19.9938C60.5712 20.2597 60.7475 20.5255 60.9453 20.8147C61.0163 20.6871 61.0614 20.6063 61.1216 20.4787C61.1668 20.6063 61.2034 20.6871 61.2378 20.7573C61.4958 21.2762 61.7645 21.7973 62.0204 22.3162C62.0441 22.3524 62.0677 22.3864 62.1021 22.4098C62.4418 22.6416 62.5472 22.9989 62.616 23.3455C62.6869 23.7156 62.6869 24.0963 63.0482 24.3409C63.0955 24.3749 63.0955 24.4791 63.132 24.5365C63.2718 24.8258 63.4115 25.115 63.5405 25.4149C63.6222 25.6126 63.6911 25.8189 63.7276 26.0274C63.7857 26.3974 63.8093 26.7675 63.8674 27.1375C63.8781 27.2311 63.9964 27.3225 64.0781 27.3693C64.1254 27.3927 64.2178 27.2758 64.2995 27.2311C64.4285 27.1609 64.5447 27.0907 64.6737 27.0099C64.7446 26.9652 64.8371 26.9419 64.8715 26.8823C65.0585 26.525 65.609 26.491 65.6434 26.004C65.6434 25.9933 65.667 25.9699 65.6907 25.9593C65.7014 25.9593 65.7014 25.9593 65.7014 25.9593C65.738 25.183 65.6326 24.3749 65.5036 23.5646Z" fill="#3477F6"/>
<mask id="mask0_8529_1897" style="mask-type:luminance" maskUnits="userSpaceOnUse" x="10" y="24" width="21" height="26">
<path d="M10 24.1216H30.3123V49.4999H10V24.1216Z" fill="white"/>
</mask>
<g mask="url(#mask0_8529_1897)">
<path d="M29.4823 36.0396C28.9212 36.0843 28.5599 35.7738 28.2202 35.4378C27.8461 35.0783 27.4139 34.9401 26.9 34.9975C26.6893 35.0209 26.455 34.9635 26.2679 34.8827C26.0464 34.7891 25.8594 34.7317 25.6379 34.8593C25.5906 34.8827 25.5196 34.8827 25.4981 34.8827C25.4164 34.7083 25.3691 34.5126 25.2509 34.4318C24.937 34.2361 24.5972 34.0958 24.2575 33.9469C24.0017 33.8299 23.8146 33.9108 23.6619 34.1426C23.5566 34.2936 23.4405 34.4318 23.3115 34.6168C23.0319 34.4084 22.8083 34.2 22.5396 34.0618C22.3074 33.9342 22.26 33.7725 22.3654 33.5769C22.4944 33.311 22.6342 33.0558 22.7976 32.824C22.9373 32.6283 23.0319 32.5135 22.7976 32.3157C22.6578 32.2009 22.6213 31.9691 22.5396 31.784C22.4815 31.6564 22.4708 31.5076 22.3891 31.414C21.9332 30.9525 21.3957 30.6739 20.7292 30.6292C20.3894 30.6058 20.0282 30.5122 19.7465 30.34C19.467 30.1656 19.28 29.8423 19.022 29.6105C18.8005 29.4021 18.3447 29.4382 18.321 28.998C18.321 28.9874 18.3103 28.9874 18.2974 28.9746C18.0866 28.8257 17.8652 28.6641 17.6437 28.5237C17.5857 28.4897 17.4803 28.4663 17.433 28.5003C17.0825 28.779 16.7321 28.7215 16.3579 28.5599C16.345 28.5599 16.3343 28.5599 16.3235 28.5599C16.0999 28.5705 15.9129 28.5471 15.7495 28.3281C15.5516 28.0622 15.2592 28.1665 15.0012 28.2941C14.7561 28.4195 14.9324 28.5939 14.9561 28.7556C14.9668 28.8704 14.9195 28.998 14.9087 29.1256C14.4293 28.7088 14.8141 28.2813 14.8141 27.8879C14.4873 28.0495 14.1842 28.1771 13.8917 28.3387C13.7756 28.4089 13.6703 28.5365 13.5993 28.6641C13.4703 28.8938 13.365 29.149 13.2144 29.4616C13.1091 29.3 13.051 29.2298 13.0037 29.1596C12.7823 28.7449 12.7823 28.7449 12.3845 28.964C12.3028 29.0108 12.1265 29.0342 12.1028 28.998C11.905 28.7088 11.5782 28.5004 11.5997 28.0963C11.6233 27.6922 11.647 27.2881 11.6599 26.8819C11.6836 26.3056 11.5653 26.2014 11.0041 26.329C10.959 26.3396 10.8988 26.363 10.8536 26.363C10.6536 26.3864 10.6063 26.2928 10.6429 26.1205C10.7482 25.6569 10.8536 25.1954 10.959 24.7318C10.9934 24.5829 11.0407 24.4447 11.0751 24.2937C10.6192 24.2001 10.5612 24.2363 10.4558 24.6276C10.4085 24.7913 10.3741 24.9402 10.3161 25.0912C10.3161 25.1018 10.3032 25.1146 10.3032 25.138C10.2795 25.206 10.2215 25.2762 10.1634 25.2996C10.1398 25.3103 10.129 25.323 10.1054 25.323C10.0688 25.6697 10.0473 26.0036 10.0237 26.3502C10.0108 26.4778 10.0108 26.5948 10 26.7203C10.0581 26.9287 10.1398 27.1031 10.3741 27.1945C10.759 27.3455 11.0278 27.622 11.146 28.0155C11.2492 28.3621 11.3546 28.6981 11.647 28.9406C11.905 29.149 12.1157 29.4148 12.3372 29.6467C12.4189 29.4489 12.4533 29.2638 12.5587 29.1256C12.6769 28.9746 12.8038 29.0108 12.8274 29.2171C12.8747 29.7381 13.1908 30.2017 13.1435 30.7441C13.1198 31.0439 13.2725 31.3459 12.9457 31.6224C12.7457 31.7968 12.6296 32.1073 12.5587 32.3731C12.4899 32.6283 12.5243 32.9048 12.5243 33.1834C12.5114 33.4493 12.535 33.7045 12.8274 33.8427C12.793 33.9108 12.7823 33.9809 12.7457 34.0277C12.4533 34.4212 12.5114 34.8253 12.793 35.1592C13.2488 35.7376 13.4832 36.4075 13.7154 37.0796C13.7971 37.3327 13.8917 37.5879 13.9971 37.8303C14.0207 37.8877 14.0444 37.9452 14.0659 38.0047C14.2422 38.396 14.44 38.7087 14.7561 38.9639C15.0722 39.217 15.4226 39.4488 15.7021 39.7274C15.9021 39.923 16.1128 40.1889 16.1709 40.4547C16.345 41.2055 16.4633 41.969 16.5687 42.7324C16.674 43.53 16.6848 44.3275 16.9428 45.1016C17.0481 45.4249 16.9772 45.8183 17.0008 46.1778C17.0116 46.282 17.0245 46.3841 17.0352 46.4883C17.9598 47.5176 18.9639 48.4661 20.0282 49.3551C20.0863 49.0212 19.7229 48.8021 19.7121 48.4661C19.9809 48.581 20.1916 48.6618 20.4367 48.766C20.484 48.2343 20.4711 48.2471 20.9743 48.3853C21.185 48.4427 21.4172 48.4895 21.6279 48.4661C21.7698 48.4534 21.944 48.3279 22.0149 48.2003C22.0601 48.1301 21.944 47.9451 21.8623 47.8409C21.6752 47.5878 21.4645 47.356 21.2538 47.1135C21.2774 47.0901 21.2903 47.0667 21.314 47.0327C21.4172 47.0795 21.5226 47.1135 21.6172 47.1603C21.873 47.2752 22.131 47.4028 22.3998 47.4942C22.7395 47.6218 22.9029 47.507 23.1007 47.2177C23.3588 46.8477 23.6619 46.4883 23.9651 46.165C24.2812 45.8417 24.6682 45.5653 24.4102 45.0208C24.3865 44.9634 24.3994 44.8932 24.3865 44.8358C24.3285 44.6401 24.4209 44.5593 24.5865 44.4785C24.937 44.2935 25.2982 44.1191 25.6852 43.9681C26.0464 43.8192 26.3732 43.749 26.7603 43.7618C26.9581 43.7618 27.2849 43.6342 27.343 43.4832C27.5429 42.9749 27.917 42.5581 28.0568 41.9796C28.2202 41.3224 28.3256 40.7206 28.1493 40.074C28.1149 39.9571 28.1622 39.738 28.2546 39.6806C28.7233 39.368 29.0502 38.9511 29.3533 38.513C29.4479 38.3854 29.5296 38.2578 29.6221 38.1302C29.6586 38.0728 29.7038 38.0154 29.7404 37.9579C29.9855 37.5411 30.0672 37.0668 29.9855 36.5819C29.9511 36.2459 29.764 36.0162 29.4823 36.0396Z" fill="#3477F6"/>
</g>
<path d="M11.7523 20.7678C11.8813 20.721 12.0339 20.6295 12.092 20.6636C12.1737 20.721 12.1973 20.872 12.221 20.9868C12.2425 21.0677 12.2081 21.1612 12.221 21.242C12.2898 21.6121 12.3715 21.9928 12.4532 22.3628C12.4898 22.3628 12.5349 22.3522 12.5715 22.3522C12.7456 22.1204 12.7585 21.8652 12.722 21.5887C12.6768 21.2293 12.5822 20.872 12.5951 20.5126C12.6059 19.9575 12.8854 19.53 13.3197 19.1834C13.5992 18.9537 13.9153 18.7091 14.0551 18.3986C14.2185 18.0519 14.2077 17.6117 14.2765 17.2183C14.2765 17.1949 14.3002 17.1715 14.3238 17.1268C14.3711 17.1842 14.4184 17.2417 14.4528 17.2757C14.627 16.9652 14.8141 16.6632 14.9904 16.3527C14.9904 16.3399 15.0011 16.3293 15.0011 16.3293C15.0011 15.9125 15.3645 15.8189 15.6333 15.6466C15.7494 15.5764 15.8891 15.5318 15.9837 15.451C16.0654 15.3808 16.1127 15.2659 16.1579 15.1724C16.2396 15.0107 16.2632 14.8023 16.3923 14.6875C16.732 14.3514 17.2459 14.2472 17.549 13.8197C17.7017 13.6113 18.0758 13.5539 18.3553 13.4263C18.3317 13.5433 18.25 13.6475 18.1575 13.7283C17.9704 13.8899 17.7017 14.0048 17.8543 14.3408C18.3919 13.9814 18.9058 13.6347 19.4196 13.2881C18.9165 13.3008 18.4736 13.2647 18.25 12.7457C18.3919 12.6181 18.5316 12.4905 18.6714 12.3629C18.0178 12.2247 17.6071 12.6415 17.1405 12.9074C17.1986 12.7798 17.2695 12.699 17.362 12.6288C17.5146 12.5012 17.6673 12.3629 17.8178 12.2481C18.0049 12.0971 18.1812 11.9014 18.4026 11.7972C18.6241 11.693 18.8821 11.6696 19.1272 11.5994C19.5594 11.4974 20.0152 11.4272 20.4366 11.2655C20.8452 11.1039 21.2193 10.8381 21.6171 10.6296C22.0385 10.4106 22.06 10.2468 21.7224 9.92357C21.3483 10.0639 20.9742 10.2128 20.6108 10.351C20.6001 10.317 20.5764 10.283 20.5657 10.2468C20.8452 10.1086 21.1268 9.97036 21.3483 9.86615C20.9742 9.7747 20.5764 9.68113 20.155 9.57692C20.2367 9.3685 20.3657 9.17284 20.0518 9.11542C20.0152 9.11542 20.0045 9.02184 19.9808 8.98781C19.8755 8.87297 19.7809 8.7326 19.654 8.67518C19.5959 8.65179 19.454 8.77939 19.3616 8.86021C19.0928 9.09202 18.8477 9.3451 18.5553 9.54289C18.4736 9.60031 18.2736 9.55352 18.1575 9.4961C18.1102 9.47271 18.1231 9.31107 18.1102 9.20686C18.1102 9.14944 18.1102 9.09202 18.1231 9.02184C18.0178 9.0346 17.9231 9.07926 17.8543 9.05799C17.8178 9.04523 17.7834 9.04523 17.749 9.0346C16.861 9.95973 16.031 10.9423 15.2699 11.9823C15.2462 12.029 15.2355 12.0737 15.2118 12.1205C15.1065 12.3523 15.0484 12.6181 14.9087 12.8266C14.827 12.952 14.7087 12.9882 14.6033 12.9414C14.2314 13.5071 13.868 14.0856 13.5412 14.6747C13.6229 14.6747 13.7153 14.6747 13.797 14.6875C13.8917 14.6981 13.9734 14.7449 14.0658 14.7789C14.0207 14.8831 13.997 14.9873 13.9261 15.0681C13.8336 15.1851 13.7046 15.2872 13.61 15.4042C13.5412 15.4956 13.4831 15.5998 13.4122 15.704C13.3778 15.6934 13.3305 15.6934 13.2961 15.6806C13.2832 15.519 13.2832 15.3574 13.2724 15.1617L10.8535 21.2187C10.8643 21.2187 10.875 21.2187 10.8879 21.2187C11.0621 20.721 11.391 20.5721 11.7523 20.7678Z" fill="#3477F6"/>
<path d="M63.0714 39.5531C63.0478 39.9466 62.9446 40.3039 62.721 40.6059C62.5576 40.8121 62.5232 41.0567 62.4995 41.2864C63.0843 40.2124 63.609 39.1023 64.0541 37.9453C63.8777 38.2345 63.6692 38.5132 63.4219 38.7556C63.2241 38.9406 63.0951 39.2766 63.0714 39.5531Z" fill="#3477F6"/>
<path d="M40.3403 4.72147C40.1059 4.5726 39.8716 4.4216 39.6157 4.37482C39.3233 4.3174 39.0201 4.35142 38.7148 4.36418C38.4826 4.37482 38.2482 4.39821 38.0031 4.40884C37.6397 4.43224 37.2785 4.46839 36.9044 4.48966C36.799 4.50242 36.6593 4.445 36.5647 4.37482C36.4249 4.27061 36.3088 4.27061 36.1669 4.35142C36.1325 4.37482 36.0852 4.39821 36.0508 4.43224C36.2378 4.45563 36.3776 4.46839 36.5174 4.48966C36.5303 4.48966 36.541 4.48966 36.5539 4.48966V4.50242C36.5066 4.64066 36.4722 4.74487 36.4249 4.88311C37.0097 5.0341 37.5817 5.12555 38.1429 5.12555C38.5643 5.12555 38.9836 5.09153 39.3942 5.01071C39.7318 4.91926 40.0371 4.83844 40.3403 4.72147Z" fill="#3477F6"/>
<path d="M19.2564 8.14362C19.1403 8.12022 19.022 8.09683 18.893 8.07556C19.2435 7.89054 19.6886 8.01602 19.9917 7.54388C19.7939 7.55451 19.6649 7.57791 19.5488 7.55451C19.4671 7.54388 19.3854 7.49709 19.3037 7.46094C18.9747 7.75017 18.6608 8.05217 18.3447 8.35204C18.6479 8.29462 18.9532 8.2372 19.2564 8.17765C19.2564 8.17765 19.2564 8.15638 19.2564 8.14362Z" fill="#3477F6"/>
<path d="M20.3786 7.12699C20.6108 6.99938 20.8215 6.80372 21.0323 6.64209C20.7527 6.66336 20.4711 6.68675 20.1916 6.71015C20.0045 6.86114 19.8174 7.02278 19.6304 7.18441C19.7121 7.18441 19.7809 7.18441 19.8647 7.17377C20.0389 7.16101 20.2367 7.19504 20.3786 7.12699Z" fill="#3477F6"/>
<path d="M42.1055 9.20693C42.256 9.26435 42.4194 9.34517 42.572 9.38132C42.6538 9.40471 42.7591 9.35793 42.8537 9.33453C43.0859 9.28774 43.3203 9.21969 43.5547 9.19629C43.7417 9.1729 43.8342 9.13887 43.7869 8.93045C43.7288 8.7114 43.7181 8.50298 44.0341 8.44556C43.7761 8.01596 43.0408 7.95853 42.7935 8.29456C42.7484 8.36261 42.6193 8.38601 42.5247 8.4094C42.4323 8.4328 42.3377 8.4328 42.1743 8.45619C42.3269 8.5838 42.4194 8.65185 42.5247 8.74543C42.4667 8.81348 42.4194 8.84964 42.385 8.8943C42.2925 9.01127 42.1979 9.10272 42.1055 9.20693Z" fill="#3477F6"/>
<path d="M21.441 11.2994C21.6044 11.091 21.7463 10.9187 21.8731 10.7443C21.8387 10.7209 21.8151 10.6975 21.7807 10.6763C21.2668 11.1271 20.9271 11.7162 20.5078 12.2586C20.611 12.2586 20.6927 12.2245 20.7766 12.2139C21.1141 12.1777 21.4539 12.1437 21.7914 12.1203C21.8731 12.1097 21.9678 12.131 22.0495 12.0969C22.1312 12.0629 22.1892 11.9927 22.2709 11.9119C22.3182 11.9927 22.329 12.0629 22.3763 12.0969C22.4472 12.1543 22.5289 12.2139 22.6106 12.2139C22.6687 12.2139 22.7633 12.1097 22.7504 12.0501C22.7504 11.9927 22.645 11.9481 22.5977 11.8885C22.5633 11.8438 22.516 11.7737 22.5053 11.7162C22.4945 11.6227 22.5053 11.5185 22.5053 11.427C22.1204 11.3802 21.8043 11.3462 21.441 11.2994Z" fill="#3477F6"/>
<path d="M13.7757 24.3172C13.8682 24.3044 13.9499 24.2236 14.0316 24.1789C13.9735 24.1087 13.9391 24.0152 13.8682 23.9705C13.4833 23.7493 13.0963 23.5303 12.6985 23.3346C12.2663 23.1134 11.9632 23.2176 11.7417 23.6813C12.1266 23.173 12.4899 23.6451 12.8404 23.7153C13.0382 23.7493 13.1909 24.0513 13.365 24.2363C13.3543 24.2597 13.3306 24.2938 13.3199 24.3172C13.4704 24.3278 13.6231 24.3405 13.7757 24.3172Z" fill="#3477F6"/>
<path d="M14.1841 24.8956C14.4292 24.9169 14.698 24.9403 14.9775 24.9765C15.2118 24.8956 15.4935 24.8021 15.7623 24.7213C15.4935 24.1662 15.0011 24.2598 14.5217 24.3172C14.5453 24.466 14.627 24.6511 14.5582 24.768C14.5109 24.8489 14.3002 24.8595 14.1841 24.8956Z" fill="#3477F6"/>
<path d="M22.7741 33.4729C22.7032 33.5537 22.658 33.7622 22.7032 33.7962C22.8687 33.9472 23.0773 34.1322 23.2772 34.1428C23.5095 34.1556 23.5697 33.9004 23.5804 33.6452C23.4751 33.6345 23.3826 33.6345 23.3117 33.6005C23.2299 33.5644 23.159 33.4835 23.0665 33.4602C22.9719 33.4495 22.8085 33.4261 22.7741 33.4729Z" fill="#3477F6"/>
<path d="M50.9407 14.7451C50.9643 14.8365 51.0804 14.8961 51.1514 14.9769C51.2223 14.8961 51.3492 14.8152 51.3492 14.7344C51.3384 14.5494 51.2804 14.3644 51.1858 14.19C51.1621 14.1432 50.9751 14.1793 50.9062 14.1793C50.917 14.409 50.9062 14.5834 50.9407 14.7451Z" fill="#3477F6"/>
<path d="M52.7744 15.6699C52.7744 15.6806 52.7744 15.7039 52.7637 15.7167C53.0561 15.889 53.3485 16.0634 53.6646 16.2484C53.6646 16.04 53.6646 15.9017 53.6646 15.7848C53.3485 15.738 53.0561 15.7039 52.7744 15.6699Z" fill="#3477F6"/>
<path d="M24.7951 4.8724C24.3995 4.81498 24.049 4.85964 23.791 5.21906C24.0017 5.18503 24.2124 5.12548 24.4103 5.05742C24.5393 5.01064 24.6683 4.92982 24.7951 4.8724Z" fill="#3477F6"/>
<path d="M19.6176 13.1603C19.7122 13.1263 19.8176 13.0923 19.9229 13.0455C19.8864 12.9413 19.852 12.8711 19.8047 12.7456C19.7122 12.8711 19.6305 12.9753 19.5596 13.0795C19.5832 13.1157 19.6069 13.1369 19.6176 13.1603Z" fill="#3477F6"/>
<path d="M51.1622 13.3926C50.7537 13.567 50.9644 13.7052 51.1042 13.8541C51.1278 13.7158 51.1386 13.5882 51.1622 13.3926Z" fill="#3477F6"/>
<path d="M44.1851 7.83062C44.3851 7.83062 44.4668 7.89016 44.4776 8.00501C44.4905 8.08582 44.4432 8.20067 44.3722 8.35167C44.8173 8.14325 45.0624 8.42185 45.3312 8.58348C45.3785 8.60687 45.4365 8.68769 45.4236 8.71108C45.4021 8.76851 45.3419 8.83656 45.2731 8.84932C45.1334 8.89398 44.9914 8.90674 44.8044 8.94077C44.9914 9.26403 44.7227 9.28743 44.5012 9.39164C44.8517 9.46182 45.1441 9.51924 45.4473 9.57666C45.4473 9.58943 45.4602 9.61282 45.4602 9.62345C45.1334 9.7149 44.8173 9.80848 44.4668 9.91269H47.3415C47.2362 9.80848 47.1889 9.75106 47.1652 9.72766C47.2254 9.65748 47.2835 9.58943 47.3415 9.52988C47.3888 9.47245 47.434 9.42779 47.4813 9.36824C47.3071 9.31082 47.1201 9.24277 46.9567 9.19598C46.8148 9.02159 46.7094 8.81317 46.5352 8.68769C46.1267 8.39845 45.6924 8.15601 45.1549 7.81998C45.2022 7.79659 45.2366 7.77319 45.2839 7.7498C45.4236 7.66898 45.5763 7.60093 45.716 7.52011C45.6924 7.48396 45.658 7.4393 45.6343 7.40314C45.3204 7.35848 45.0043 7.31169 44.6883 7.27554V7.18409C44.7807 7.12667 44.8646 7.07988 45.0043 6.99906C44.8409 6.97567 44.7463 6.96504 44.641 6.94164C44.3959 6.87146 44.2432 7.0097 44.1034 7.1607C44.0798 7.18409 44.0561 7.20748 44.0346 7.23088C43.8927 7.34572 44.0346 7.83062 44.1851 7.83062Z" fill="#3477F6"/>
<mask id="mask1_8529_1897" style="mask-type:luminance" maskUnits="userSpaceOnUse" x="23" y="0" width="18" height="8">
<path d="M23.1567 0.5H40.7706V7.24387H23.1567V0.5Z" fill="white"/>
</mask>
<g mask="url(#mask1_8529_1897)">
<path d="M34.707 3.27728C34.7307 3.25388 34.7414 3.23049 34.7651 3.20709C35.0682 2.89446 35.2101 2.87107 35.6187 3.02207C35.9347 3.13904 36.2487 3.19646 36.5776 3.11564C36.5884 3.07949 36.5884 3.04546 36.5991 2.99867C36.1326 2.88383 35.6767 2.76899 35.2101 2.65202C35.2918 2.5712 35.3499 2.54781 35.4187 2.56057C35.7821 2.64138 36.1089 2.86044 36.4594 2.45636C36.6228 2.25857 37.0206 2.25857 37.2893 2.17775C37.2076 2.15436 37.1259 2.12033 37.0335 2.0863C37.0335 2.06291 37.0335 2.03952 37.0442 2.01612C37.1603 1.98209 37.2893 1.94807 37.4076 1.91191C37.4076 1.88852 37.4076 1.86725 37.4076 1.85449C37.2205 1.8077 37.0335 1.76304 36.8464 1.71625V1.60141C37.2313 1.57801 37.6054 1.55462 37.9903 1.54186C37.9903 1.52059 37.9903 1.50783 37.9903 1.48444C37.6054 1.42702 37.2205 1.35683 36.8098 1.29941C36.8571 1.25263 36.8808 1.1952 36.9044 1.1952C38.0956 1.05697 39.2997 0.918728 40.493 0.78049C39.0309 0.710308 37.571 0.652886 36.0981 0.905967C36.2616 0.837912 36.4357 0.78049 36.6464 0.686914C35.595 0.744336 34.6017 0.803884 33.6083 0.861306C33.6083 0.837912 33.6083 0.803884 33.5954 0.78049C34.52 0.699675 35.4424 0.618858 36.3669 0.535916C36.2487 0.525282 36.1326 0.535916 36.0164 0.525282C35.9691 0.525282 35.9218 0.514648 35.8745 0.514648C33.6556 0.67628 31.5055 1.09099 29.4478 1.72689C29.0608 1.84386 28.6888 1.97146 28.3147 2.1097C26.6548 2.70944 25.0637 3.4623 23.5693 4.34064C23.6854 4.37467 23.8145 4.42146 23.9306 4.45549C23.9435 4.50227 23.9542 4.5363 23.9779 4.58309C23.8962 4.62988 23.8252 4.6873 23.7435 4.73409C24.152 4.55969 24.5498 4.44485 24.9949 4.67454C24.9003 4.74472 24.8315 4.80214 24.7605 4.85956C24.8895 4.82554 25.0056 4.80214 25.1346 4.76812C25.1583 4.80214 25.169 4.8383 25.1927 4.87232C24.9712 5.01056 24.7734 5.18495 24.5261 5.2764C24.0832 5.4508 23.9198 5.61243 23.9069 6.0399C24.1305 6.12072 24.3627 6.1909 24.5863 6.27172C24.5154 6.46737 24.539 6.53756 24.7734 6.68643C25.1583 6.92888 25.5561 7.06924 26.0119 6.87145C26.128 6.82679 26.2914 6.86082 26.4312 6.89485C27.074 7.07987 27.5535 6.94164 27.8223 6.35253C27.8932 6.20153 28.0223 6.07393 28.162 5.96972C28.291 5.86551 28.4544 5.82085 28.6049 5.74003C28.6178 5.56564 28.6522 5.35722 28.7576 5.31043C29.1661 5.13817 29.5983 4.98717 30.0326 4.88296C30.4175 4.79151 30.8153 4.77875 31.2002 4.71069C31.3636 4.6873 31.5055 4.62988 31.4582 4.39806C31.4453 4.32788 31.527 4.18964 31.6087 4.15562C31.8667 4.05141 32.1462 3.9472 32.415 3.90041C33.0471 3.80896 33.6793 3.75154 34.2985 3.64733C34.6597 3.5899 35.0231 3.50696 35.3736 3.39212C35.4424 3.36872 35.5241 3.34533 35.595 3.3113C35.408 3.30067 35.2101 3.27728 35.0102 3.26451C34.9285 3.28791 34.8231 3.28791 34.707 3.27728Z" fill="#3477F6"/>
</g>
<path d="M64.9188 21.9932C64.9898 22.1548 65.0586 22.3292 65.1295 22.4908C65.1768 22.595 65.1876 22.7099 65.2349 22.8034C65.2929 22.8843 65.3402 22.9885 65.3983 23.0693C65.4327 23.2309 65.4564 23.3926 65.48 23.5648C66.6024 24.9174 67.4194 26.1892 67.9226 27.3334C68.6127 28.8944 68.6944 30.1556 68.1569 31.0807C67.6194 32.0037 66.4734 32.5715 64.7554 32.7566C64.3705 32.8033 63.9599 32.8246 63.5277 32.8246C62.0333 32.8374 60.2552 32.6183 58.2341 32.1547C54.0392 31.2189 49.1412 29.3687 44.1271 26.8613C44.0109 26.8017 43.8819 26.8251 43.7873 26.9059C43.6476 27.0463 43.6841 27.2887 43.8583 27.3802C48.9197 29.9131 53.8628 31.774 58.1051 32.7332C60.023 33.1606 61.728 33.3925 63.1901 33.4158C63.2718 33.4158 63.3643 33.4158 63.446 33.4158C66.0885 33.4158 67.8989 32.7332 68.6815 31.3806C69.8985 29.3113 68.5547 25.9935 64.9188 21.9932Z" fill="#FFCB55"/>
<path d="M27.6246 16.5142C27.7536 16.3972 27.7407 16.1888 27.6117 16.0867C26.2227 14.8958 24.9606 13.7048 23.8726 12.5244C23.1373 11.7397 22.4944 10.9868 21.944 10.2595C21.8622 10.1446 21.7698 10.0277 21.6881 9.92345C20.9979 8.97705 20.4604 8.07532 20.0862 7.24164C20.0733 7.23101 20.0733 7.20761 20.0626 7.19485C20.0282 7.11404 19.9916 7.02259 19.9572 6.94177C19.3853 5.51899 19.3487 4.36417 19.8519 3.49646C20.3894 2.57133 21.5354 2.00562 23.2534 1.8206C23.6619 1.77381 24.107 1.75042 24.5736 1.75042C25.6852 1.75042 26.9473 1.87802 28.3492 2.13323C28.7233 1.99286 29.0974 1.86739 29.4823 1.75042C24.1414 0.618993 20.5421 1.12728 19.338 3.19659C18.6844 4.31738 18.7768 5.80822 19.5831 7.57766C19.6175 7.66911 19.6648 7.74993 19.7121 7.84351C20.0045 8.44537 20.3787 9.07914 20.8345 9.73842C20.8925 9.832 20.9635 9.92345 21.0215 10.0043C21.0559 10.0511 21.0903 10.0978 21.1269 10.1446C21.2538 10.3169 21.3828 10.5019 21.5225 10.6763C21.5591 10.7337 21.6042 10.7805 21.6408 10.8379C21.6752 10.8826 21.6988 10.9188 21.7332 10.9634C21.8515 11.1038 21.9676 11.2527 22.0837 11.4037C22.2944 11.6589 22.5051 11.9013 22.7266 12.1672C22.9502 12.4202 23.1953 12.6861 23.4404 12.9519C24.5499 14.1429 25.8249 15.3466 27.2268 16.5589C27.3322 16.6184 27.5063 16.6184 27.6246 16.5142Z" fill="#FFCB55"/>
<path d="M43.1677 26.6631C43.2279 26.5823 43.2387 26.4909 43.2387 26.3973C43.2279 26.3059 43.1914 26.2123 43.1333 26.1442C42.7829 25.7274 42.398 25.3233 42.011 24.9299C41.7658 24.698 41.5207 24.4662 41.2756 24.2472C40.6908 23.7389 40.0823 23.2646 39.4394 22.8371L39.7684 20.653L39.8135 20.317L40.2586 20.6062L40.5037 20.7678C40.68 20.8827 40.9251 20.838 41.0412 20.653L41.2176 20.3872C41.3337 20.2128 41.2864 19.9703 41.0993 19.8555L40.8542 19.6917L39.9898 19.1388L40.0952 18.4327L40.68 14.5493L40.7961 13.739C40.8434 13.3923 40.7381 13.0563 40.5037 12.8032L37.8849 18.9537L36.3303 20.8593L34.5199 19.7045C33.2234 18.8729 31.8559 18.1434 30.4411 17.5416L30.8152 15.115C30.884 14.6407 30.6862 14.1792 30.2884 13.9134L28.8629 17.1035C28.4888 17.0461 28.1727 17.0227 28.1383 17.0801C28.1039 17.1269 28.2673 17.38 28.4888 17.6819L26.1172 20.2829C26.5257 20.5254 27.0396 20.5254 27.4481 20.2595L29.5165 18.9303C30.6626 19.9576 31.8903 20.8954 33.1868 21.727L35.0574 22.9286L33.9695 25.1489L29.495 30.1191C29.8219 30.2127 30.1831 30.1659 30.4755 29.9702L31.1657 29.5066L34.4618 27.3118L35.0574 26.9184L35.9347 27.45L36.1798 27.5989C36.3669 27.7159 36.5991 27.6585 36.7173 27.4734L36.8915 27.1948C37.0098 27.0098 36.9517 26.7801 36.7646 26.6631L36.5174 26.5143C36.541 26.5249 36.5647 26.5483 36.5776 26.5589C36.5539 26.5355 36.541 26.5249 36.5174 26.5143L36.0615 26.2357L36.354 26.04L38.1429 24.849C39.0782 25.4147 40.0715 25.8996 41.0885 26.2931C41.6024 26.4909 42.1292 26.6631 42.6667 26.8141C42.7592 26.8375 42.8646 26.8375 42.9463 26.8014C43.0409 26.8014 43.1097 26.744 43.1677 26.6631Z" fill="#FFCB55"/>
<path d="M84.5645 28.6982H79.946L79.2064 30.8589H76.0586L80.5309 18.626H84.0141L88.495 30.8589H85.3042L84.5645 28.6982ZM83.7905 26.4013L82.2596 21.9182L80.7459 26.4013H83.7905Z" fill="#FFCB55"/>
<path d="M89.3379 24.7258C89.3379 23.5178 89.6002 22.4417 90.1291 21.4932C90.6559 20.5468 91.3934 19.8088 92.3395 19.2814C93.2855 18.7539 94.3563 18.4902 95.5561 18.4902C97.0225 18.4902 98.2781 18.873 99.3231 19.6387C100.366 20.4043 101.065 21.4506 101.422 22.7777H98.1018C97.8546 22.2673 97.5041 21.8802 97.0526 21.6123C96.6053 21.3401 96.0915 21.2039 95.5131 21.2039C94.5885 21.2039 93.8381 21.5251 93.2597 22.1652C92.6856 22.8075 92.3997 23.6603 92.3997 24.7258C92.3997 25.7977 92.6856 26.6548 93.2597 27.2949C93.8381 27.9308 94.5885 28.2477 95.5131 28.2477C96.0915 28.2477 96.6053 28.1158 97.0526 27.8479C97.5041 27.582 97.8546 27.1907 98.1018 26.6739H101.422C101.065 28.001 100.366 29.0452 99.3231 29.8045C98.2781 30.5658 97.0225 30.9444 95.5561 30.9444C94.3563 30.9444 93.2855 30.6807 92.3395 30.1532C91.3934 29.6258 90.6559 28.8921 90.1291 27.9499C89.6002 27.0099 89.3379 25.9338 89.3379 24.7258Z" fill="#FFCB55"/>
<path d="M112.69 22.5647C112.69 23.275 112.522 23.9237 112.191 24.5128C111.864 25.0976 111.359 25.5719 110.677 25.9334C109.994 26.2907 109.149 26.4694 108.14 26.4694H106.274V30.8589H103.264V18.626H108.14C109.125 18.626 109.959 18.7961 110.643 19.1364C111.325 19.4724 111.834 19.936 112.174 20.5315C112.518 21.1228 112.69 21.7991 112.69 22.5647ZM107.917 24.0959C108.488 24.0959 108.916 23.9641 109.198 23.6961C109.478 23.4303 109.619 23.0538 109.619 22.5647C109.619 22.0777 109.478 21.7012 109.198 21.4333C108.916 21.1674 108.488 21.0334 107.917 21.0334H106.274V24.0959H107.917Z" fill="#FFCB55"/>
<path d="M126.881 18.626V21.0164H123.604V30.8589H120.594V21.0164H117.317V18.626H126.881Z" fill="#3477F6"/>
<path d="M132.868 30.9952C131.905 30.9952 131.038 30.7952 130.27 30.3912C129.501 29.9828 128.896 29.4022 128.456 28.6472C128.013 27.8944 127.793 27.0118 127.793 26.0016C127.793 24.9978 128.017 24.1173 128.464 23.3559C128.912 22.5967 129.522 22.0161 130.296 21.612C131.07 21.2037 131.939 20.9995 132.902 20.9995C133.865 20.9995 134.734 21.2037 135.508 21.612C136.286 22.0161 136.897 22.5967 137.34 23.3559C137.787 24.1173 138.011 24.9978 138.011 26.0016C138.011 27.0012 137.783 27.8795 137.331 28.6387C136.878 29.4001 136.261 29.9828 135.482 30.3912C134.702 30.7952 133.831 30.9952 132.868 30.9952ZM132.868 28.4176C133.446 28.4176 133.936 28.2113 134.338 27.7966C134.745 27.3776 134.949 26.78 134.949 26.0016C134.949 25.219 134.751 24.6213 134.356 24.2066C133.964 23.7877 133.481 23.5771 132.902 23.5771C132.317 23.5771 131.829 23.7855 131.44 24.1981C131.055 24.6065 130.864 25.2083 130.864 26.0016C130.864 26.78 131.053 27.3776 131.431 27.7966C131.814 28.2113 132.294 28.4176 132.868 28.4176Z" fill="#3477F6"/>
<path d="M149.314 21.1357V30.8592H146.304V29.5321C145.999 29.9638 145.586 30.3105 145.066 30.5699C144.543 30.8315 143.965 30.9612 143.328 30.9612C142.576 30.9612 141.911 30.7975 141.333 30.4678C140.759 30.1403 140.314 29.6597 140 29.0302C139.684 28.4007 139.527 27.6648 139.527 26.8184V21.1357H142.52V26.4185C142.52 27.0651 142.688 27.5712 143.027 27.9328C143.371 28.2901 143.829 28.4687 144.403 28.4687C144.988 28.4687 145.448 28.2901 145.788 27.9328C146.132 27.5712 146.304 27.0651 146.304 26.4185V21.1357H149.314Z" fill="#3477F6"/>
<path d="M154.492 22.7606C154.846 22.2225 155.287 21.7993 155.816 21.4931C156.343 21.1868 156.93 21.0337 157.579 21.0337V24.1898H156.745C155.992 24.1898 155.429 24.3493 155.051 24.6662C154.677 24.9852 154.492 25.5466 154.492 26.3505V30.8592H151.481V21.1358H154.492V22.7606Z" fill="#3477F6"/>
<path d="M163.018 30.9952C162.158 30.9952 161.393 30.8505 160.722 30.5613C160.055 30.2721 159.528 29.8765 159.139 29.3703C158.754 28.8663 158.539 28.2985 158.494 27.6689H161.47C161.504 28.0092 161.661 28.2857 161.943 28.4941C162.222 28.6983 162.571 28.8004 162.984 28.8004C163.356 28.8004 163.646 28.7302 163.852 28.5877C164.059 28.441 164.162 28.2517 164.162 28.0177C164.162 27.7413 164.016 27.5371 163.723 27.4052C163.431 27.2691 162.954 27.1202 162.296 26.9544C161.59 26.797 161.001 26.6268 160.532 26.4439C160.062 26.2632 159.655 25.9803 159.311 25.5933C158.971 25.2019 158.804 24.6745 158.804 24.011C158.804 23.4559 158.959 22.9476 159.268 22.4882C159.582 22.0289 160.042 21.6673 160.644 21.3993C161.251 21.1335 161.971 20.9995 162.803 20.9995C164.035 20.9995 165.007 21.3036 165.719 21.9098C166.428 22.5116 166.839 23.3113 166.948 24.3087H164.162C164.115 23.9748 163.966 23.709 163.715 23.5091C163.461 23.3113 163.13 23.2113 162.717 23.2113C162.367 23.2113 162.098 23.2794 161.909 23.4155C161.719 23.5473 161.625 23.7281 161.625 23.9599C161.625 24.2385 161.773 24.4491 162.072 24.5894C162.375 24.7255 162.842 24.8659 163.474 25.0063C164.201 25.1934 164.794 25.3785 165.254 25.5592C165.712 25.7357 166.114 26.025 166.458 26.4269C166.807 26.8246 166.987 27.3606 167 28.0347C167 28.609 166.837 29.1194 166.51 29.566C166.187 30.0084 165.723 30.3571 165.117 30.6123C164.515 30.8676 163.814 30.9952 163.018 30.9952Z" fill="#3477F6"/>
</svg>
