<svg width="20" height="20" viewBox="0 0 20 20" fill="none" xmlns="http://www.w3.org/2000/svg">
<path d="M5.83331 7.08333L8.285 8.53283C9.71431 9.37791 10.2856 9.37791 11.715 8.53283L14.1666 7.08333" stroke="#616161" stroke-width="1.75" stroke-linecap="round" stroke-linejoin="round"/>
<path d="M1.67982 11.2297C1.73431 13.7843 1.76154 15.0616 2.70415 16.0078C3.64676 16.954 4.95863 16.9869 7.58238 17.0529C9.19944 17.0935 10.8006 17.0935 12.4177 17.0529C15.0414 16.9869 16.3533 16.954 17.2959 16.0078C18.2385 15.0616 18.2658 13.7843 18.3202 11.2297C18.3378 10.4083 18.3378 9.59168 18.3202 8.77035C18.2658 6.21571 18.2385 4.9384 17.2959 3.99221C16.3533 3.04602 15.0414 3.01306 12.4177 2.94713C10.8006 2.9065 9.19944 2.9065 7.58237 2.94712C4.95863 3.01304 3.64676 3.046 2.70415 3.9922C1.76154 4.93839 1.7343 6.2157 1.67982 8.77027C1.66231 9.59168 1.66231 10.4083 1.67982 11.2297Z" stroke="#616161" stroke-width="1.75" stroke-linejoin="round"/>
</svg>
