<svg width="16" height="16" viewBox="0 0 16 16" fill="none" xmlns="http://www.w3.org/2000/svg">
<path d="M11 2C9.98 2 9.1 2.53463 8.56 3.3442C9.46 4.16905 10 5.29941 10 6.59778C10 7.04076 9.94 7.43791 9.82 7.83506C10.2 8.00308 10.58 8.12529 11 8.12529C12.66 8.12529 14 6.75053 14 5.07028C14 3.39003 12.66 2.01528 11 2.01528V2ZM5 3.5275C3.34 3.5275 2 4.90225 2 6.58251C2 8.26276 3.34 9.63751 5 9.63751C6.66 9.63751 8 8.26276 8 6.58251C8 4.90225 6.66 3.5275 5 3.5275ZM14.5 8.35441C13.64 9.13344 12.46 9.60696 11.12 9.63751C11.66 10.218 12 10.9206 12 11.6844V12.6925H16V10.1569C16 9.36256 15.38 8.67519 14.5 8.33914V8.35441ZM1.5 9.88191C0.62 10.218 0 10.9053 0 11.6996V14.2353H10V11.6996C10 10.9053 9.38 10.218 8.5 9.88191C7.6 10.6915 6.38 11.165 5 11.165C3.62 11.165 2.4 10.6762 1.5 9.88191Z" fill="white"/>
</svg>
