<svg width="16" height="16" viewBox="0 0 16 16" fill="none" xmlns="http://www.w3.org/2000/svg">
<path d="M10.6115 10.4213L10.6114 10.4212C10.3461 10.8078 9.99831 11.0945 9.56224 11.3018L9.55028 11.3075L9.55021 11.3073C9.37535 11.3848 9.19606 11.446 9.01296 11.4906V12.0098C9.01296 12.4301 8.67249 12.7692 8.25355 12.7692H7.47715C7.05692 12.7692 6.71774 12.4288 6.71774 12.0098V11.3511C6.67326 11.3334 6.62893 11.3146 6.58472 11.2946C6.11102 11.0992 5.72009 10.7786 5.44503 10.3472C5.16875 9.93995 5.02795 9.47284 5.00637 8.95036L10.6115 10.4213ZM10.6115 10.4213L10.6185 10.4105M10.6115 10.4213L10.6185 10.4105M10.6185 10.4105C10.8675 10.0269 10.9948 9.59671 10.9948 9.14023C10.9948 8.70311 10.8776 8.30281 10.6423 7.94638C10.5266 7.75693 10.3765 7.59194 10.1995 7.44907M10.6185 10.4105L10.1995 7.44907M10.1995 7.44907C10.5768 7.38799 10.8555 7.05198 10.8363 6.66189L10.8362 6.66134C10.8128 6.19578 10.6779 5.76234 10.4258 5.3928C10.1705 5.00044 9.81645 4.71498 9.36382 4.51162L9.35393 4.50718L9.34386 4.50317C9.23737 4.46077 9.12704 4.42357 9.01332 4.39146V3.97257C9.01332 3.55363 8.67414 3.21316 8.25391 3.21316H7.47752C7.05858 3.21316 6.71811 3.55234 6.71811 3.97257V4.47028C6.68543 4.48322 6.65335 4.49678 6.62185 4.51095C6.19823 4.69036 5.83813 4.97422 5.58899 5.34889L5.58883 5.34879L5.58152 5.36047C5.34986 5.73056 5.22798 6.14037 5.22798 6.57215C5.22798 6.9655 5.32744 7.33808 5.53128 7.66798C5.64165 7.84744 5.7825 8.00613 5.94683 8.14512L5.7139 8.16103C5.71383 8.16103 5.71376 8.16104 5.71369 8.16104C5.30373 8.18898 4.98932 8.53817 5.00637 8.95014L10.1995 7.44907ZM8.59724 6.7701C8.47195 6.73789 8.33932 6.70532 8.20022 6.67249L8.20025 6.67234L8.18829 6.66983C7.86099 6.60098 7.65523 6.53658 7.53327 6.49091C7.61279 6.46155 7.75779 6.42876 7.98461 6.42876C8.30272 6.42876 8.42876 6.49288 8.48247 6.53866L8.48992 6.54501L8.49762 6.55107C8.51684 6.5662 8.56511 6.61379 8.59724 6.7701ZM7.45443 6.51009C7.45456 6.51042 7.45469 6.51075 7.45482 6.51108L7.40961 6.45243L7.41192 6.44983C7.43122 6.46707 7.44606 6.48909 7.45443 6.51009ZM7.45507 6.51173C7.45662 6.51576 7.45773 6.51924 7.45852 6.52206C7.45818 6.52296 7.45781 6.52391 7.45739 6.52489C7.45684 6.52619 7.45621 6.52756 7.4555 6.52897C7.45262 6.53468 7.45014 6.53763 7.45019 6.53757C7.45044 6.53728 7.4532 6.53413 7.46004 6.52849C7.46027 6.52972 7.46035 6.53043 7.46036 6.53055C7.46038 6.53069 7.46029 6.52998 7.46023 6.52833L7.45507 6.51173ZM7.21696 8.78078C7.21599 8.7727 7.2149 8.76467 7.21368 8.75668C7.35322 8.79634 7.50693 8.83673 7.67633 8.879L7.67633 8.87901L7.67978 8.87985C8.15919 8.99587 8.46897 9.08372 8.58888 9.12221C8.69219 9.16457 8.74312 9.19749 8.76314 9.21227C8.76261 9.22255 8.7612 9.22702 8.7608 9.2283C8.76045 9.2294 8.75941 9.23259 8.75609 9.23846C8.7383 9.2572 8.69458 9.29328 8.59134 9.33848C8.32025 9.43935 7.89412 9.44047 7.5716 9.29851L7.57166 9.29836L7.55973 9.29347C7.42325 9.23755 7.37059 9.18742 7.32687 9.12177L7.3206 9.11235L7.31391 9.10322C7.2858 9.06489 7.23891 8.96475 7.21702 8.78128L7.21696 8.78078ZM1.5 8C1.5 4.41616 4.41616 1.5 8 1.5C11.5838 1.5 14.5 4.41616 14.5 8C14.5 11.5838 11.5838 14.5 8 14.5C4.41616 14.5 1.5 11.5838 1.5 8Z" fill="white" stroke="#4BDCD5"/>
</svg>
