<svg width="50" height="50" viewBox="0 0 50 50" fill="none" xmlns="http://www.w3.org/2000/svg">
<g clip-path="url(#clip0_7105_3206)">
<path d="M22.9168 12.5C25.7918 12.5 28.396 13.6667 30.2814 15.5521L25.0002 20.8334H37.5002V8.33337L33.2293 12.6042C30.5939 9.96879 26.9481 8.33337 22.9168 8.33337C15.5731 8.33337 9.51058 13.7709 8.50016 20.8334H12.7085C13.6772 16.0834 17.8752 12.5 22.9168 12.5ZM34.6668 31.5313C36.0522 29.6459 36.9897 27.4167 37.3335 25H33.1252C32.1564 29.75 27.9585 33.3334 22.9168 33.3334C20.0418 33.3334 17.4377 32.1667 15.5522 30.2813L20.8335 25H8.3335V37.5L12.6043 33.2292C15.2397 35.8646 18.8856 37.5 22.9168 37.5C26.146 37.5 29.1252 36.4375 31.5418 34.6563L41.6668 44.7709L44.771 41.6667L34.6668 31.5313Z" fill="#3477F6"/>
</g>
<defs>
<clipPath id="clip0_7105_3206">
<rect width="50" height="50" fill="white"/>
</clipPath>
</defs>
</svg>
