<svg width="20" height="20" viewBox="0 0 20 20" fill="none" xmlns="http://www.w3.org/2000/svg">
<path d="M13.125 10.625H10C9.83424 10.625 9.67527 10.5592 9.55806 10.4419C9.44085 10.3247 9.375 10.1658 9.375 10V5.625C9.375 5.45924 9.44085 5.30027 9.55806 5.18306C9.67527 5.06585 9.83424 5 10 5C10.1658 5 10.3247 5.06585 10.4419 5.18306C10.5592 5.30027 10.625 5.45924 10.625 5.625V9.375H13.125C13.2908 9.375 13.4497 9.44085 13.5669 9.55806C13.6842 9.67527 13.75 9.83424 13.75 10C13.75 10.1658 13.6842 10.3247 13.5669 10.4419C13.4497 10.5592 13.2908 10.625 13.125 10.625Z" fill="#FFB100"/>
<path d="M15.3123 15.3125C14.3009 16.3256 13.0208 17.0281 11.623 17.3371C10.2252 17.646 8.76822 17.5485 7.42409 17.056C6.07997 16.5635 4.90486 15.6966 4.03758 14.5577C3.17029 13.4188 2.64705 12.0555 2.52966 10.6288C2.41227 9.20215 2.70563 7.77166 3.37509 6.50633C4.04456 5.24101 5.06216 4.19371 6.3077 3.48812C7.55325 2.78254 8.97471 2.44816 10.4042 2.52446C11.8337 2.60077 13.2114 3.08458 14.3748 3.91875V3.125C14.3748 2.95924 14.4406 2.80027 14.5579 2.68306C14.6751 2.56585 14.834 2.5 14.9998 2.5C15.1656 2.5 15.3245 2.56585 15.4417 2.68306C15.5589 2.80027 15.6248 2.95924 15.6248 3.125V5.625C15.6248 5.79076 15.5589 5.94973 15.4417 6.06694C15.3245 6.18415 15.1656 6.25 14.9998 6.25H13.1248C12.959 6.25 12.8001 6.18415 12.6829 6.06694C12.5656 5.94973 12.4998 5.79076 12.4998 5.625C12.4998 5.45924 12.5656 5.30027 12.6829 5.18306C12.8001 5.06585 12.959 5 13.1248 5H13.7498C12.5641 4.11071 11.101 3.67171 9.62162 3.76136C8.14222 3.85102 6.74283 4.46349 5.67323 5.48945C4.60363 6.51542 3.93343 7.8881 3.78227 9.36249C3.63112 10.8369 4.00883 12.317 4.848 13.5386C5.68716 14.7603 6.93316 15.644 8.36359 16.032C9.79402 16.42 11.3158 16.287 12.6572 15.6568C13.9987 15.0266 15.0725 13.9402 15.6871 12.5915C16.3016 11.2428 16.4169 9.71957 16.0123 8.29375C15.9829 8.21293 15.9706 8.12693 15.976 8.04112C15.9814 7.95531 16.0044 7.87153 16.0437 7.79504C16.0829 7.71854 16.1376 7.65096 16.2041 7.59654C16.2707 7.54211 16.3478 7.502 16.4305 7.47872C16.5133 7.45544 16.6 7.44949 16.6852 7.46124C16.7703 7.47299 16.8522 7.50219 16.9255 7.54701C16.9989 7.59183 17.0623 7.65131 17.1116 7.72173C17.1609 7.79214 17.1952 7.87198 17.2123 7.95625C17.5793 9.24052 17.5967 10.5995 17.2627 11.8928C16.9287 13.186 16.2553 14.3666 15.3123 15.3125Z" fill="#FFB100"/>
</svg>
