<svg width="91" height="90" viewBox="0 0 91 90" fill="none" xmlns="http://www.w3.org/2000/svg">
<g clip-path="url(#clip0_6637_660)">
<path d="M80.44 78.7636L76.92 81.3818C74.6364 83.0793 71.8556 84 69 84C66.1444 84 63.3636 83.0793 61.08 81.3818L57.56 78.7636C50.9116 73.8196 47 66.0611 47 57.8182V44.7273C47 39.9055 50.938 36 55.8 36H82.2C87.062 36 91 39.9055 91 44.7273V57.8182C91 66.0611 87.0884 73.8196 80.44 78.7636Z" fill="#4BDCD5"/>
<path d="M72.2135 51.9858C73.2235 53.5074 72.8177 55.5626 71.2962 56.5725L58.0654 65.393C57.5053 65.7679 56.8703 65.9487 56.2308 65.9487C55.3796 65.9487 54.5284 65.618 53.8933 64.9785L49.4831 60.5682C48.1909 59.276 48.1909 57.1811 49.4831 55.8889C50.7753 54.5967 52.8702 54.5967 54.1624 55.8889L56.6542 58.3807L67.6269 51.0641C69.1484 50.0542 71.1992 50.4643 72.2135 51.9858ZM86 45V58.2308C86 67.5496 81.5456 76.4539 74.0923 82.0417L70.5641 84.6923C67.7151 86.8269 64.1913 88 60.641 88C57.0908 88 53.567 86.8269 50.7224 84.6967L47.1897 82.0417C46.0298 81.1729 44.9714 80.1983 43.9614 79.1795H12.3443C5.53928 79.1795 0 73.7416 0 67.0513V31.7692C0 25.0789 5.53928 19.641 12.3443 19.641H17.641V14.1282C17.641 7.43785 23.0789 2 29.7692 2H47.4103C54.1006 2 59.5385 7.43785 59.5385 14.1282V19.641H64.8352C71.6402 19.641 77.1795 25.0789 77.1795 31.7692V33.3878C82.2557 34.8388 86 39.4651 86 45ZM17.641 26.2564H12.3443C9.18656 26.2564 6.61538 28.7306 6.61538 31.7692V67.0513C6.61538 70.09 9.18656 72.5641 12.3443 72.5641H17.641V26.2564ZM59.5385 26.2564V32.8718H70.5641V31.7692C70.5641 28.7306 67.9929 26.2564 64.8352 26.2564H59.5385ZM24.2564 19.641H52.9231V14.1282C52.9231 11.0895 50.4489 8.61538 47.4103 8.61538H29.7692C26.7306 8.61538 24.2564 11.0895 24.2564 14.1282V19.641ZM39.0308 72.5641C36.636 68.2112 35.2821 63.2937 35.2821 58.2308V45C35.2821 38.3096 40.7199 32.8718 47.4103 32.8718H52.9231V26.2564H24.2564V72.5641H39.0308ZM79.3846 45C79.3846 41.9613 76.9105 39.4872 73.8718 39.4872H47.4103C44.3716 39.4872 41.8974 41.9613 41.8974 45V58.2308C41.8974 65.4812 45.3595 72.4053 51.1634 76.7539L54.6916 79.4044C58.1007 81.9535 63.1813 81.958 66.5993 79.4044L70.1231 76.7583C75.9226 72.4097 79.389 65.4812 79.389 58.2352V45.0044L79.3846 45Z" fill="#1E5855"/>
</g>
<defs>
<clipPath id="clip0_6637_660">
<rect width="90" height="90" fill="white" transform="translate(0.5)"/>
</clipPath>
</defs>
</svg>
