<svg width="20" height="20" viewBox="0 0 20 20" fill="none" xmlns="http://www.w3.org/2000/svg">
<g clip-path="url(#clip0_6957_982)">
<path d="M19.1663 2.50008C18.3683 3.06298 17.4848 3.4935 16.5497 3.77508C16.0478 3.198 15.3808 2.78899 14.6389 2.60335C13.897 2.41771 13.1159 2.46441 12.4014 2.73712C11.6869 3.00984 11.0734 3.49541 10.6438 4.12818C10.2143 4.76094 9.98942 5.51036 9.99967 6.27508V7.10841C8.5352 7.14639 7.08407 6.82159 5.77552 6.16295C4.46696 5.50431 3.34161 4.53228 2.49967 3.33341C2.49967 3.33341 -0.833659 10.8334 6.66634 14.1667C4.95011 15.3317 2.90564 15.9159 0.833008 15.8334C8.33301 20.0001 17.4997 15.8334 17.4997 6.25008C17.4989 6.01796 17.4766 5.78641 17.433 5.55841C18.2835 4.71966 18.8837 3.66067 19.1663 2.50008V2.50008Z" stroke="#333333" stroke-width="2" stroke-linecap="round" stroke-linejoin="round"/>
</g>
<defs>
<clipPath id="clip0_6957_982">
<rect width="20" height="20" fill="white"/>
</clipPath>
</defs>
</svg>
