<svg width="58" height="58" viewBox="0 0 58 58" fill="none" xmlns="http://www.w3.org/2000/svg">
<g clip-path="url(#clip0_7113_3293)">
<path d="M57.6753 28.717C57.6753 42.1388 46.813 53.0635 33.4537 53.0635C28.522 53.0635 23.7776 51.5652 19.7198 48.8185C18.5961 48.0069 18.284 46.5087 19.0956 45.3226C19.9071 44.1989 21.4053 43.8867 22.5915 44.6983C25.7752 46.8832 29.5833 48.0693 33.4537 48.0693C44.0663 48.0693 52.6812 39.392 52.6812 28.717C52.6812 18.0421 44.0663 9.36475 33.4537 9.36475C23.0909 9.36475 14.6008 17.6675 14.2263 28.0303L20.032 22.1622C21.0308 21.1634 22.5915 21.1634 23.5903 22.1622C24.5891 23.1611 24.5891 24.7217 23.5903 25.7206L14.039 35.2718C13.5396 35.7713 12.9153 36.021 12.291 36.021C11.6043 36.021 10.9801 35.7713 10.5431 35.2718L0.991797 25.6581C-0.00703123 24.6593 -0.00703123 23.0986 0.991797 22.0998C1.99063 21.101 3.55129 21.101 4.55012 22.0998L9.29456 26.9067C10.1685 14.3589 20.6562 4.37061 33.4537 4.37061C46.813 4.37061 57.6753 15.2953 57.6753 28.717ZM33.3289 14.5462C31.9555 14.5462 30.8318 15.6698 30.8318 17.0432V28.717C30.8318 29.4037 31.1439 30.028 31.6433 30.465L37.012 35.8337C37.5115 36.3331 38.1357 36.5828 38.8224 36.5828C39.4467 36.5828 40.1334 36.3331 40.5704 35.8337C41.5692 34.8349 41.5068 33.2742 40.5079 32.2754L35.8259 27.6558V17.0432C35.8259 15.6698 34.7022 14.5462 33.3289 14.5462Z" fill="#3477F6"/>
</g>
<defs>
<clipPath id="clip0_7113_3293">
<rect width="57.4326" height="57.4326" fill="white" transform="translate(0.242676)"/>
</clipPath>
</defs>
</svg>
